<svg width="518" height="492" viewBox="0 0 518 492" fill="none" xmlns="http://www.w3.org/2000/svg">
<circle cx="334.5" cy="183.5" r="183" stroke="#25DD7E"/>
<path d="M371.554 408.238H47.3769C37.4531 408.238 29.911 400.166 30.7049 390.241L47.9061 150.996C48.5677 141.072 57.3007 133 67.0921 133H391.137C401.061 133 408.603 141.072 407.809 150.996L390.608 390.241C390.079 400.166 381.478 408.238 371.554 408.238Z" fill="#191919"/>
<path d="M296.133 492H190.941L172.152 361.924H277.344L296.133 492Z" fill="#191919"/>
<path d="M279.461 484.193H165.669L163.419 492H277.212L279.461 484.193Z" fill="#252E3D"/>
<path d="M282.902 424.514L180.356 418.956L172.152 361.924H273.904L282.902 424.514Z" fill="#252E3D"/>
<path d="M367.849 408.238H43.8043C33.8805 408.238 26.3384 400.166 27.1323 390.241L44.2012 150.996C44.8628 141.072 53.5958 133 63.5196 133H387.565C397.488 133 405.03 141.072 404.237 150.996L387.035 390.241C386.506 400.166 377.773 408.238 367.849 408.238Z" fill="#191919"/>
<path d="M403.53 153.339L393.68 290.6L395 290.694L404.85 153.433L403.53 153.339Z" fill="white"/>
<path d="M392.788 302.584L389.383 350.098L390.703 350.192L394.108 302.679L392.788 302.584Z" fill="white"/>
<path d="M367.188 403.739H45.1275C37.4531 403.739 31.4988 397.387 32.1604 389.712L49.097 151.526C49.6263 143.851 56.3744 137.499 64.1812 137.499H386.241C393.916 137.499 399.87 143.851 399.208 151.526L382.14 389.712C381.61 397.519 374.862 403.739 367.188 403.739Z" fill="white"/>
<path opacity="0.2" d="M367.188 403.739H45.1275C37.4531 403.739 31.4988 397.387 32.1604 389.712L49.097 151.526C49.6263 143.851 56.3744 137.499 64.1812 137.499H386.241C393.916 137.499 399.87 143.851 399.208 151.526L382.14 389.712C381.61 397.519 374.862 403.739 367.188 403.739Z" fill="white"/>
<path opacity="0.2" d="M355.213 392H56.0902C48.9624 392 43.4322 386.155 44.0467 379.092L59.777 159.908C60.2686 152.845 66.5362 147 73.7869 147H372.91C380.038 147 385.568 152.845 384.953 159.908L369.1 379.092C368.608 386.277 362.341 392 355.213 392Z" fill="#25DD7E"/>
<path opacity="0.8" d="M105.729 373.833H77.1482C75.4281 373.833 74.2373 372.51 74.3696 370.79C74.5019 369.069 75.9574 367.746 77.5452 367.746H106.126C107.846 367.746 109.037 369.069 108.904 370.79C108.904 372.51 107.449 373.833 105.729 373.833Z" fill="white"/>
<g opacity="0.8">
<path opacity="0.8" d="M376.318 335.723C376.185 335.723 376.053 335.723 376.053 335.591L375.921 335.459V335.326C375.921 335.194 375.921 335.062 376.053 335.062C376.185 334.929 376.45 334.929 376.715 335.062C376.847 335.194 376.847 335.326 376.847 335.326V335.459C376.847 335.459 376.847 335.591 376.715 335.591C376.45 335.723 376.318 335.723 376.318 335.723Z" fill="white"/>
<path opacity="0.8" d="M164.213 366.82C163.948 366.82 163.816 366.687 163.816 366.423C163.816 366.158 164.081 366.026 164.213 366.026C164.478 366.026 164.61 366.29 164.61 366.423C164.61 366.555 164.478 366.82 164.213 366.82ZM159.714 366.555C159.45 366.555 159.317 366.29 159.317 366.026C159.317 365.761 159.582 365.629 159.847 365.629C160.111 365.629 160.243 365.893 160.243 366.158C160.111 366.423 159.979 366.555 159.714 366.555ZM168.183 366.158C168.183 365.893 168.315 365.629 168.579 365.629C168.844 365.629 169.109 365.761 169.109 366.026C169.109 366.29 168.976 366.555 168.712 366.555C168.447 366.555 168.183 366.29 168.183 366.158ZM155.215 365.893C154.951 365.893 154.818 365.629 154.818 365.364C154.818 365.1 155.083 364.967 155.348 364.967C155.612 364.967 155.745 365.232 155.745 365.496C155.612 365.629 155.48 365.893 155.215 365.893ZM172.681 365.364C172.681 365.1 172.814 364.835 172.946 364.835C173.211 364.835 173.475 364.967 173.475 365.1C173.475 365.364 173.343 365.629 173.211 365.629H173.078C172.814 365.761 172.681 365.629 172.681 365.364ZM317.304 365.629C317.039 365.629 316.907 365.364 316.907 365.232C316.907 364.967 317.172 364.835 317.304 364.835C317.569 364.835 317.701 365.1 317.701 365.232C317.833 365.364 317.569 365.629 317.304 365.629ZM321.406 364.967C321.406 364.703 321.538 364.438 321.803 364.438C322.068 364.438 322.332 364.57 322.332 364.835C322.332 365.1 322.2 365.364 321.935 365.364C321.671 365.364 321.406 365.232 321.406 364.967ZM312.805 365.232C312.541 365.232 312.408 364.967 312.408 364.703C312.408 364.438 312.673 364.306 312.938 364.306C313.202 364.306 313.335 364.57 313.335 364.835C313.335 365.1 313.07 365.364 312.805 365.232C312.805 365.364 312.805 365.364 312.805 365.232ZM150.849 364.703C150.584 364.57 150.452 364.438 150.584 364.173C150.717 363.909 150.849 363.776 151.114 363.909C151.378 364.041 151.511 364.173 151.378 364.438C151.246 364.703 151.114 364.703 150.849 364.703ZM325.772 364.306C325.772 364.041 325.905 363.776 326.169 363.776C326.434 363.776 326.699 363.909 326.699 364.173C326.699 364.438 326.566 364.703 326.302 364.703C326.302 364.703 326.302 364.703 326.169 364.703C326.037 364.703 325.905 364.57 325.772 364.306ZM308.439 364.438C308.174 364.438 308.042 364.173 308.174 363.909C308.174 363.644 308.439 363.512 308.703 363.644C308.968 363.644 309.1 363.909 308.968 364.173C308.836 364.306 308.703 364.438 308.439 364.438ZM176.915 364.041C176.783 363.776 176.915 363.512 177.18 363.512C177.445 363.379 177.709 363.512 177.709 363.776C177.842 364.041 177.709 364.306 177.445 364.306H177.312C177.18 364.438 177.048 364.306 176.915 364.041ZM330.271 363.379C330.271 363.115 330.404 362.85 330.536 362.85C330.8 362.85 331.065 362.982 331.065 363.115C331.065 363.379 330.933 363.644 330.8 363.644H330.668C330.404 363.644 330.271 363.512 330.271 363.379ZM304.072 363.115C303.808 362.982 303.675 362.718 303.808 362.585C303.94 362.321 304.205 362.188 304.337 362.321C304.602 362.453 304.734 362.718 304.602 362.85C304.602 362.982 304.337 363.115 304.205 363.115C304.072 363.247 304.072 363.247 304.072 363.115ZM181.017 362.321C180.885 362.056 181.017 361.791 181.15 361.659C181.414 361.527 181.679 361.659 181.811 361.924C181.944 362.188 181.811 362.453 181.679 362.585C181.679 362.585 181.547 362.585 181.414 362.585C181.282 362.585 181.15 362.453 181.017 362.321ZM334.505 362.056C334.373 361.791 334.505 361.527 334.77 361.527C335.035 361.394 335.299 361.527 335.299 361.791C335.432 362.056 335.299 362.321 335.035 362.321H334.902C334.77 362.321 334.638 362.188 334.505 362.056ZM299.838 361.394C299.574 361.262 299.574 360.997 299.574 360.733C299.706 360.468 299.971 360.468 300.235 360.468C300.5 360.6 300.5 360.865 300.5 361.13C300.367 361.262 300.235 361.394 300.103 361.394C299.971 361.527 299.971 361.527 299.838 361.394ZM338.74 360.468C338.607 360.203 338.74 359.939 339.004 359.939C339.269 359.806 339.533 359.939 339.533 360.203C339.666 360.468 339.533 360.733 339.269 360.865H339.136C339.004 360.733 338.74 360.6 338.74 360.468ZM184.987 360.203C184.855 359.939 184.987 359.674 185.119 359.542C185.384 359.41 185.648 359.41 185.781 359.674C185.913 359.939 185.781 360.203 185.648 360.336C185.648 360.336 185.516 360.468 185.384 360.468C185.251 360.336 184.987 360.336 184.987 360.203ZM295.869 359.41C295.604 359.277 295.604 359.013 295.736 358.748C295.869 358.483 296.133 358.483 296.398 358.616C296.663 358.748 296.663 359.013 296.53 359.277C296.398 359.41 296.266 359.542 296.133 359.542C296.001 359.41 295.869 359.41 295.869 359.41ZM342.841 358.616C342.709 358.351 342.841 358.086 343.106 357.954C343.371 357.822 343.635 357.954 343.768 358.219C343.9 358.483 343.768 358.748 343.503 358.88H343.371C343.106 358.88 342.841 358.748 342.841 358.616ZM188.692 357.689C188.559 357.425 188.559 357.16 188.824 357.028C189.089 356.895 189.353 356.895 189.486 357.16C189.618 357.425 189.618 357.689 189.353 357.822C189.221 357.822 189.221 357.954 189.089 357.954C188.956 357.822 188.824 357.822 188.692 357.689ZM291.899 357.16C291.635 357.028 291.635 356.763 291.767 356.498C291.899 356.234 292.164 356.234 292.428 356.366C292.693 356.498 292.693 356.763 292.561 357.028C292.428 357.16 292.296 357.292 292.164 357.292C292.031 357.16 292.031 357.16 291.899 357.16ZM346.811 356.631C346.679 356.366 346.811 356.101 346.943 355.969C347.208 355.837 347.472 355.969 347.605 356.101C347.737 356.366 347.605 356.631 347.472 356.763C347.472 356.763 347.34 356.763 347.208 356.763C347.076 356.895 346.943 356.763 346.811 356.631ZM192.264 354.91C192.132 354.646 192.132 354.381 192.264 354.249C192.397 354.116 192.794 354.116 192.926 354.381C193.058 354.513 193.058 354.91 192.926 355.043C192.794 355.043 192.794 355.175 192.661 355.175C192.529 355.175 192.397 355.043 192.264 354.91ZM288.062 354.778C287.797 354.646 287.797 354.381 287.93 354.116C288.062 353.852 288.327 353.852 288.591 353.984C288.724 354.116 288.856 354.381 288.724 354.646C288.591 354.778 288.459 354.91 288.327 354.91C288.327 354.778 288.194 354.778 288.062 354.778ZM350.78 354.381C350.648 354.116 350.78 353.852 350.913 353.72C351.177 353.587 351.442 353.719 351.574 353.852C351.707 354.116 351.574 354.381 351.442 354.513C351.31 354.513 351.31 354.513 351.177 354.513C351.045 354.646 350.913 354.513 350.78 354.381ZM284.357 352.264C284.092 352.132 284.092 351.867 284.225 351.602C284.357 351.47 284.622 351.338 284.886 351.47C285.151 351.602 285.151 351.867 285.019 352.132C284.886 352.264 284.754 352.264 284.622 352.264C284.489 352.264 284.489 352.264 284.357 352.264ZM354.618 352.132C354.485 351.867 354.618 351.602 354.75 351.47C355.015 351.338 355.279 351.47 355.411 351.602C355.544 351.867 355.411 352.132 355.279 352.264C355.279 352.264 355.147 352.396 355.015 352.396C354.882 352.264 354.75 352.264 354.618 352.132ZM195.705 352.132C195.572 351.999 195.572 351.602 195.705 351.47C195.837 351.338 196.234 351.338 196.366 351.47C196.498 351.735 196.498 351.999 196.234 352.132C196.101 352.264 196.101 352.264 195.969 352.264C195.969 352.264 195.837 352.264 195.705 352.132ZM358.322 349.617C358.19 349.353 358.19 349.088 358.455 348.956C358.719 348.823 358.984 348.823 359.116 349.088C359.249 349.353 359.249 349.617 358.984 349.75C358.852 349.75 358.852 349.882 358.719 349.882C358.587 349.75 358.455 349.75 358.322 349.617ZM280.652 349.75C280.388 349.617 280.388 349.353 280.52 349.088C280.652 348.823 280.917 348.823 281.181 348.956C281.446 349.088 281.446 349.353 281.314 349.617C281.181 349.75 281.049 349.882 280.917 349.882C280.785 349.75 280.785 349.75 280.652 349.75ZM199.277 349.22C199.145 349.088 199.145 348.691 199.277 348.559C199.409 348.426 199.806 348.426 199.939 348.559C200.071 348.691 200.071 349.088 199.939 349.22C199.806 349.353 199.806 349.353 199.674 349.353C199.409 349.353 199.277 349.353 199.277 349.22ZM276.947 347.236C276.683 347.103 276.683 346.839 276.815 346.574C276.947 346.309 277.212 346.309 277.477 346.442C277.741 346.574 277.741 346.839 277.609 347.103C277.477 347.236 277.344 347.236 277.212 347.236C277.08 347.368 276.947 347.236 276.947 347.236ZM362.027 346.971C361.895 346.839 361.895 346.442 362.16 346.309C362.292 346.177 362.689 346.177 362.821 346.442C362.954 346.574 362.954 346.971 362.689 347.103C362.557 347.103 362.557 347.236 362.424 347.236C362.292 347.236 362.16 347.103 362.027 346.971ZM202.717 346.309C202.585 346.177 202.585 345.78 202.717 345.648C202.982 345.515 203.247 345.515 203.379 345.648C203.511 345.78 203.511 346.177 203.379 346.309C203.247 346.442 203.247 346.442 203.114 346.442C202.85 346.574 202.717 346.442 202.717 346.309ZM273.11 344.854C272.845 344.721 272.845 344.457 272.978 344.192C273.11 343.927 273.375 343.927 273.639 344.06C273.904 344.192 273.904 344.457 273.772 344.721C273.639 344.854 273.507 344.986 273.375 344.986C273.242 344.854 273.242 344.854 273.11 344.854ZM365.6 344.324C365.468 344.06 365.468 343.795 365.732 343.663C365.865 343.53 366.262 343.53 366.394 343.795C366.526 343.927 366.526 344.324 366.262 344.457C366.129 344.457 366.129 344.589 365.997 344.589C365.865 344.457 365.732 344.457 365.6 344.324ZM206.158 343.53C206.025 343.266 206.025 343.001 206.29 342.869C206.422 342.736 206.819 342.736 206.951 343.001C207.084 343.133 207.084 343.53 206.819 343.663C206.687 343.663 206.687 343.795 206.555 343.795C206.422 343.795 206.29 343.663 206.158 343.53ZM269.273 342.472C269.008 342.339 269.008 342.075 269.141 341.81C269.273 341.546 269.538 341.546 269.802 341.678C270.067 341.81 270.067 342.075 269.935 342.339C269.802 342.472 269.67 342.604 269.538 342.604C269.405 342.604 269.405 342.604 269.273 342.472ZM369.173 341.546C369.04 341.413 369.04 341.016 369.173 340.884C369.437 340.752 369.702 340.752 369.834 340.884C369.966 341.016 369.966 341.413 369.834 341.546C369.702 341.546 369.569 341.678 369.569 341.678C369.437 341.678 369.305 341.678 369.173 341.546ZM209.862 341.016C209.73 340.752 209.73 340.487 209.995 340.355C210.259 340.222 210.524 340.222 210.656 340.487C210.789 340.752 210.789 341.016 210.524 341.149C210.392 341.149 210.392 341.281 210.259 341.281C210.127 341.149 209.862 341.016 209.862 341.016ZM265.303 340.355C265.039 340.222 265.039 339.958 265.171 339.693C265.303 339.428 265.568 339.428 265.833 339.428C266.097 339.561 266.097 339.825 265.965 340.09C265.833 340.222 265.7 340.355 265.568 340.355C265.568 340.487 265.436 340.487 265.303 340.355ZM372.613 338.634C372.48 338.502 372.48 338.105 372.613 337.973C372.745 337.84 373.142 337.84 373.274 337.973C373.407 338.105 373.407 338.502 373.274 338.634C373.142 338.767 373.142 338.767 373.01 338.767C372.877 338.767 372.745 338.767 372.613 338.634ZM213.7 338.502C213.567 338.237 213.7 337.973 213.832 337.84C214.097 337.708 214.361 337.84 214.494 337.973C214.626 338.237 214.494 338.502 214.361 338.634C214.229 338.634 214.229 338.634 214.097 338.634C213.832 338.767 213.7 338.767 213.7 338.502ZM261.334 338.502C261.069 338.37 261.069 338.105 261.069 337.84C261.202 337.576 261.466 337.576 261.731 337.576C261.995 337.708 261.995 337.973 261.995 338.237C261.995 338.37 261.731 338.502 261.599 338.502C261.466 338.502 261.466 338.502 261.334 338.502ZM257.232 336.782C256.967 336.649 256.835 336.385 256.967 336.252C257.1 335.988 257.364 335.856 257.497 335.988C257.761 336.12 257.894 336.385 257.761 336.517C257.761 336.649 257.497 336.782 257.364 336.782H257.232ZM217.669 336.517C217.537 336.252 217.669 335.988 217.934 335.856C218.198 335.723 218.463 335.856 218.595 336.12C218.728 336.385 218.595 336.649 218.331 336.782H218.198C217.802 336.782 217.669 336.649 217.669 336.517ZM252.998 335.459C252.733 335.326 252.601 335.194 252.733 334.929C252.733 334.665 252.998 334.532 253.263 334.665C253.527 334.665 253.659 334.929 253.527 335.194C253.527 335.326 253.263 335.459 252.998 335.459C253.13 335.459 252.998 335.459 252.998 335.459ZM221.771 334.797C221.639 334.532 221.771 334.268 222.036 334.268C222.3 334.135 222.565 334.268 222.565 334.532C222.697 334.797 222.565 335.062 222.3 335.062H222.168C222.036 335.062 221.771 334.929 221.771 334.797ZM248.631 334.268C248.367 334.268 248.234 334.003 248.234 333.738C248.234 333.474 248.499 333.341 248.764 333.341C249.028 333.341 249.161 333.606 249.161 333.871C249.161 334.135 249.028 334.268 248.631 334.268C248.764 334.268 248.764 334.268 248.631 334.268ZM226.005 333.606C226.005 333.341 226.137 333.077 226.402 333.077C226.667 333.077 226.931 333.209 226.931 333.474C226.931 333.738 226.799 334.003 226.534 334.003C226.534 334.003 226.534 334.003 226.402 334.003C226.27 333.871 226.137 333.738 226.005 333.606ZM244.265 333.606C244 333.606 243.868 333.341 243.868 333.077C243.868 332.812 244.133 332.68 244.397 332.68C244.662 332.68 244.794 332.944 244.794 333.209C244.794 333.341 244.53 333.606 244.265 333.606ZM230.504 332.812C230.504 332.547 230.636 332.415 230.901 332.283C231.166 332.283 231.43 332.415 231.43 332.68C231.43 332.944 231.298 333.209 231.033 333.209C230.769 333.209 230.504 333.077 230.504 332.812ZM239.898 333.077C239.634 333.077 239.502 332.812 239.502 332.547C239.502 332.283 239.766 332.15 240.031 332.15C240.295 332.15 240.428 332.415 240.428 332.68C240.295 332.944 240.163 333.077 239.898 333.077ZM235.003 332.547C235.003 332.283 235.135 332.15 235.4 332.15C235.664 332.15 235.797 332.283 235.797 332.547C235.797 332.812 235.532 332.944 235.4 332.944C235.135 332.944 235.003 332.812 235.003 332.547Z" fill="white"/>
<path opacity="0.8" d="M146.482 363.379H146.35C146.35 363.379 146.218 363.379 146.218 363.247L146.086 363.114V362.982C146.086 362.85 146.086 362.718 146.218 362.718L146.35 362.585C146.482 362.585 146.615 362.585 146.747 362.585C146.747 362.585 146.879 362.585 146.879 362.718C147.012 362.85 147.012 362.85 147.012 362.982V363.114C147.012 363.114 147.012 363.247 146.879 363.247L146.747 363.379C146.615 363.379 146.482 363.379 146.482 363.379Z" fill="white"/>
</g>
<path d="M263.583 227.878L267.156 224.57C262.392 219.409 259.746 212.396 260.275 204.588C261.202 191.488 270.861 180.505 283.166 177.329L282.24 172.83L281.446 168.728C274.963 170.448 269.008 173.756 263.98 178.388C248.631 192.547 246.911 216.365 260.408 230.921L263.583 227.878Z" fill="white"/>
<path opacity="0.8" fill-rule="evenodd" clip-rule="evenodd" d="M363.615 264.267H165.007C163.948 264.267 163.154 263.341 163.154 262.282C163.287 261.224 164.213 260.297 165.272 260.297H363.88C364.938 260.297 365.732 261.224 365.732 262.282C365.732 263.473 364.674 264.267 363.615 264.267Z" fill="white"/>
<path opacity="0.8" fill-rule="evenodd" clip-rule="evenodd" d="M330.536 272.604H164.478C163.419 272.604 162.625 271.678 162.625 270.619C162.758 269.56 163.684 268.634 164.742 268.634H330.8C331.859 268.634 332.653 269.56 332.653 270.619C332.521 271.678 331.594 272.604 330.536 272.604Z" fill="white"/>
<g clip-path="url(#clip0)">
<path d="M274.455 347.576C274.911 347.897 276.283 348.852 278.574 350.439C280.864 352.026 282.618 353.248 283.837 354.105C283.971 354.199 284.255 354.403 284.691 354.718C285.126 355.033 285.488 355.287 285.775 355.481C286.063 355.675 286.411 355.893 286.82 356.134C287.229 356.375 287.614 356.556 287.975 356.676C288.337 356.797 288.672 356.857 288.98 356.857H289H289.02C289.328 356.857 289.663 356.797 290.025 356.676C290.386 356.556 290.772 356.375 291.18 356.134C291.588 355.893 291.936 355.675 292.224 355.481C292.512 355.287 292.874 355.033 293.309 354.718C293.744 354.403 294.029 354.199 294.163 354.105C295.395 353.248 298.529 351.071 303.565 347.576C304.542 346.893 305.359 346.069 306.015 345.105C306.672 344.141 307 343.13 307 342.072C307 341.188 306.682 340.431 306.046 339.802C305.409 339.172 304.656 338.857 303.786 338.857H274.214C273.183 338.857 272.389 339.206 271.834 339.902C271.278 340.598 271 341.469 271 342.513C271 343.357 271.368 344.272 272.105 345.256C272.841 346.24 273.625 347.014 274.455 347.576Z" fill="#25DD7E"/>
<path d="M304.991 349.725C300.598 352.698 297.263 355.009 294.987 356.656C294.223 357.219 293.604 357.658 293.128 357.972C292.653 358.287 292.02 358.608 291.23 358.936C290.44 359.265 289.704 359.428 289.021 359.428H289H288.98C288.297 359.428 287.56 359.265 286.77 358.936C285.98 358.608 285.347 358.287 284.872 357.972C284.396 357.658 283.777 357.219 283.014 356.656C281.205 355.331 277.877 353.02 273.029 349.725C272.266 349.217 271.589 348.634 271 347.978V363.928C271 364.813 271.315 365.569 271.944 366.199C272.574 366.828 273.33 367.143 274.214 367.143H303.786C304.67 367.143 305.426 366.828 306.056 366.199C306.686 365.569 307 364.813 307 363.928V347.978C306.424 348.62 305.755 349.203 304.991 349.725Z" fill="#25DD7E"/>
</g>
<path opacity="0.2" d="M6.87711 366H210.494L213.191 334.467H9.57402L6.87711 366Z" fill="black"/>
<path d="M0 357.849H203.617L214 240H10.3831L0 357.849Z" fill="#1976D2"/>
<path opacity="0.1" d="M0 357.849H203.617L214 240H10.3831L0 357.849Z" fill="white"/>
<path d="M9.57404 249.487H213.191L214 240H10.3831L9.57404 249.487Z" fill="#263238"/>
<path d="M200.515 244.81C200.381 246.414 201.594 247.75 203.212 247.75C204.831 247.75 206.314 246.414 206.449 244.81C206.584 243.207 205.37 241.871 203.752 241.871C202.134 241.871 200.65 243.207 200.515 244.81Z" fill="white"/>
<path d="M191.75 244.81C191.616 246.414 192.829 247.75 194.447 247.75C196.066 247.75 197.549 246.414 197.684 244.81C197.819 243.207 196.605 241.871 194.987 241.871C193.369 241.871 191.885 243.207 191.75 244.81Z" fill="white"/>
<path d="M182.851 244.81C182.716 246.414 183.929 247.75 185.548 247.75C187.166 247.75 188.649 246.414 188.784 244.81C188.919 243.207 187.705 241.871 186.087 241.871C184.469 241.871 182.986 243.207 182.851 244.81Z" fill="white"/>
<g clip-path="url(#clip1)">
<g opacity="0.2">
<path opacity="0.2" d="M257.6 241.8H363.2L377 84.4H271.4L257.6 241.8Z" fill="black"/>
</g>
<path d="M251 233.5H356.7L370.5 76H264.8L251 233.5Z" fill="#03A9F4"/>
<g opacity="0.1">
<path opacity="0.1" d="M251 233.5H356.7L370.5 76H264.8L251 233.5Z" fill="white"/>
</g>
<path d="M263.9 86.5H369.6L370.5 76H264.8L263.9 86.5Z" fill="#263238"/>
<path d="M355.6 81.3C355.4 83.1 356.8 84.6 358.6 84.6C360.4 84.6 362 83.1 362.1 81.3C362.3 79.5 360.9 78 359.1 78C357.3 78.1 355.7 79.5 355.6 81.3Z" fill="white"/>
<path d="M345.8 81.3C345.6 83.1 347 84.6 348.8 84.6C350.6 84.6 352.2 83.1 352.3 81.3C352.5 79.5 351.1 78 349.3 78C347.6 78.1 346 79.5 345.8 81.3Z" fill="white"/>
<path d="M336.1 81.3C335.9 83.1 337.3 84.6 339.1 84.6C340.9 84.6 342.5 83.1 342.6 81.3C342.8 79.5 341.4 78 339.6 78C337.8 78.1 336.2 79.5 336.1 81.3Z" fill="white"/>
<g clip-path="url(#clip2)">
<path d="M352 131.865C349.285 133.056 346.393 133.846 343.377 134.229C346.479 132.376 348.847 129.466 349.961 125.957C347.068 127.682 343.874 128.9 340.471 129.58C337.724 126.655 333.809 124.844 329.539 124.844C321.253 124.844 314.583 131.569 314.583 139.813C314.583 141 314.683 142.14 314.93 143.226C302.488 142.619 291.478 136.656 284.083 127.572C282.791 129.812 282.034 132.376 282.034 135.137C282.034 140.32 284.703 144.914 288.682 147.574C286.277 147.528 283.918 146.83 281.92 145.731C281.92 145.777 281.92 145.836 281.92 145.895C281.92 153.168 287.108 159.208 293.91 160.6C292.692 160.933 291.364 161.093 289.986 161.093C289.028 161.093 288.061 161.038 287.153 160.837C289.092 166.764 294.595 171.121 301.137 171.263C296.046 175.246 289.58 177.646 282.582 177.646C281.354 177.646 280.177 177.591 279 177.44C285.629 181.715 293.486 184.156 301.958 184.156C329.498 184.156 344.554 161.344 344.554 141.57C344.554 140.908 344.531 140.27 344.499 139.635C347.469 137.528 349.965 134.895 352 131.865Z" fill="white"/>
</g>
</g>
<g clip-path="url(#clip3)">
<path d="M100.1 107.6H200.2L200.9 99.6H100.8L100.1 107.6Z" fill="#263238"/>
<path d="M189.5 103.6C189.4 105 190.4 106.1 191.8 106.1C193.2 106.1 194.4 105 194.5 103.6C194.6 102.2 193.6 101.1 192.2 101.1C190.9 101.1 189.6 102.3 189.5 103.6Z" fill="white"/>
<path d="M182.1 103.6C182 105 183 106.1 184.4 106.1C185.8 106.1 187 105 187.1 103.6C187.2 102.2 186.2 101.1 184.8 101.1C183.4 101.1 182.2 102.3 182.1 103.6Z" fill="white"/>
<path d="M174.7 103.6C174.6 105 175.6 106.1 177 106.1C178.4 106.1 179.6 105 179.7 103.6C179.8 102.2 178.8 101.1 177.4 101.1C176 101.1 174.8 102.3 174.7 103.6Z" fill="white"/>
<path opacity="0.2" d="M197 206.2L205.8 106.1H105.7L96.9 206.2H197Z" fill="black"/>
<path d="M92 199.7H192.1L200.9 99.6H100.8L92 199.7Z" fill="#0077B7"/>
<path d="M100.1 107H200.2L200.9 99H100.8L100.1 107Z" fill="#263238"/>
<path d="M189.5 103.1C189.4 104.5 190.4 105.6 191.8 105.6C193.2 105.6 194.4 104.5 194.5 103.1C194.6 101.7 193.6 100.6 192.2 100.6C190.9 100.6 189.6 101.7 189.5 103.1Z" fill="white"/>
<path d="M182.1 103.1C182 104.5 183 105.6 184.4 105.6C185.8 105.6 187 104.5 187.1 103.1C187.2 101.7 186.2 100.6 184.8 100.6C183.4 100.6 182.2 101.7 182.1 103.1Z" fill="white"/>
<path d="M174.7 103.1C174.6 104.5 175.6 105.6 177 105.6C178.4 105.6 179.6 104.5 179.7 103.1C179.8 101.7 178.8 100.6 177.4 100.6C176 100.6 174.8 101.7 174.7 103.1Z" fill="white"/>
<rect x="129" y="135" width="37" height="34" fill="white"/>
<path d="M162.291 132H128.709C126.661 132 125 133.661 125 135.709V169.291C125 171.34 126.661 173 128.709 173H162.291C164.34 173 166 171.34 166 169.291V135.709C166 133.661 164.34 132 162.291 132ZM137.687 167.402C137.687 167.998 137.204 168.481 136.608 168.481H132.013C131.417 168.481 130.934 167.998 130.934 167.402V148.143C130.934 147.547 131.417 147.063 132.013 147.063H136.608C137.204 147.063 137.687 147.547 137.687 148.143V167.402ZM134.311 145.248C131.9 145.248 129.946 143.294 129.946 140.883C129.946 138.473 131.9 136.519 134.311 136.519C136.721 136.519 138.675 138.473 138.675 140.883C138.675 143.294 136.721 145.248 134.311 145.248ZM161.697 167.489C161.697 168.037 161.253 168.481 160.705 168.481H155.775C155.227 168.481 154.782 168.037 154.782 167.489V158.455C154.782 157.108 155.178 152.55 151.261 152.55C148.222 152.55 147.606 155.67 147.482 157.07V167.489C147.482 168.037 147.038 168.481 146.49 168.481H141.721C141.173 168.481 140.729 168.037 140.729 167.489V148.056C140.729 147.508 141.173 147.063 141.721 147.063H146.49C147.038 147.063 147.482 147.508 147.482 148.056V149.736C148.609 148.045 150.283 146.74 153.848 146.74C161.742 146.74 161.697 154.116 161.697 158.168V167.489Z" fill="#0077B7"/>
</g>
<path d="M114.5 293.188H105.125V286.938C105.125 285.212 106.525 283.812 108.25 283.812H111.375V276H105.125C99.9469 276 95.75 280.197 95.75 285.375V293.188H89.5V301H95.75V326H105.125V301H111.375L114.5 293.188Z" fill="white"/>
<path d="M451 286H361L357 341.5H409L413.5 357.5L424.5 341.5H445L451 286Z" fill="#25DD7E"/>
<g clip-path="url(#clip4)">
<path d="M417.432 322.593L418.373 304.967C418.427 303.928 417.625 303.049 416.6 302.993C415.567 302.939 414.683 303.734 414.627 304.766L413.687 322.393C413.632 323.426 414.427 324.31 415.46 324.365C416.495 324.42 417.377 323.628 417.432 322.593Z" fill="white"/>
<path d="M412.725 305.231L412.312 305.476C409.408 307.196 405.994 308.102 402.645 308.188L402.133 317.777C405.454 318.219 408.755 319.422 411.46 321.441L411.845 321.729L412.725 305.231Z" fill="white"/>
<path d="M400.766 308.202L394.213 307.852C392.665 307.769 391.337 308.956 391.255 310.511L391.055 314.255C390.972 315.804 392.159 317.131 393.714 317.214L400.267 317.563L400.766 308.202ZM395.786 313.569C395.269 313.542 394.872 313.1 394.9 312.583C394.927 312.066 395.368 311.67 395.886 311.697L397.758 311.797C398.275 311.825 398.671 312.266 398.644 312.783C398.616 313.3 398.175 313.697 397.658 313.669L395.786 313.569Z" fill="white"/>
<path d="M399.061 323.91L400.862 324.006C402.417 324.089 403.739 322.896 403.82 321.348L403.892 320.01C403.28 319.855 402.662 319.739 402.034 319.65L401.947 321.248C401.921 321.763 401.483 322.16 400.962 322.134L399.131 322.036L399.23 319.385L395.486 319.186L395.264 325.105C395.208 326.131 396.001 327.02 397.036 327.075C398.069 327.13 398.954 326.335 399.009 325.302L399.061 323.91Z" fill="white"/>
<path d="M422.292 308.124C421.945 307.739 421.353 307.707 420.968 308.053L419.573 309.307C419.188 309.653 419.156 310.245 419.503 310.631C419.849 311.016 420.441 311.048 420.826 310.701L422.221 309.448C422.606 309.102 422.638 308.509 422.292 308.124Z" fill="white"/>
<path d="M421.727 318.716L420.473 317.321C420.127 316.936 419.535 316.904 419.149 317.25C418.764 317.597 418.732 318.189 419.079 318.574L420.332 319.969C420.679 320.354 421.271 320.386 421.656 320.04C422.042 319.693 422.073 319.101 421.727 318.716Z" fill="white"/>
<path d="M424.896 314.238C424.923 313.721 424.527 313.279 424.01 313.252L421.362 313.11C420.845 313.083 420.403 313.479 420.376 313.997C420.348 314.514 420.745 314.955 421.262 314.983L423.91 315.124C424.427 315.151 424.868 314.755 424.896 314.238Z" fill="white"/>
</g>
<defs>
<clipPath id="clip0">
<rect width="36" height="36" fill="white" transform="translate(271 335)"/>
</clipPath>
<clipPath id="clip1">
<rect width="126" height="165.8" fill="white" transform="matrix(-1 0 0 1 377 76)"/>
</clipPath>
<clipPath id="clip2">
<rect width="73" height="73" fill="white" transform="translate(279 118)"/>
</clipPath>
<clipPath id="clip3">
<rect width="113.8" height="107.2" fill="white" transform="matrix(-1 0 0 1 205.8 99)"/>
</clipPath>
<clipPath id="clip4">
<rect width="32" height="32" fill="white" transform="translate(407.801 292) rotate(48.0533)"/>
</clipPath>
</defs>
</svg>
