<svg width="382" height="359" fill="none" xmlns="http://www.w3.org/2000/svg"><path d="M344.554 275.238H20.377c-9.924 0-17.466-8.072-16.672-17.997L20.906 17.996C21.568 8.072 30.301 0 40.092 0h324.045c9.924 0 17.466 8.072 16.672 17.996l-17.201 239.245c-.529 9.925-9.13 17.997-19.054 17.997z" fill="#191919"/><path d="M269.133 359H163.941l-18.789-130.076h105.192L269.133 359z" fill="#191919"/><path d="M252.461 351.193H138.669l-2.25 7.807h113.793l2.249-7.807zm3.441-59.679l-102.546-5.558-8.204-57.032h101.752l8.998 62.59z" fill="#252E3D"/><path d="M340.849 275.238H16.804c-9.923 0-17.466-8.072-16.672-17.997l17.07-239.245C17.861 8.072 26.595 0 36.52 0h324.045c9.923 0 17.465 8.072 16.672 17.996l-17.202 239.245c-.529 9.925-9.262 17.997-19.186 17.997z" fill="#191919"/><path d="M376.53 20.339L366.68 157.6l1.32.094 9.85-137.26-1.32-.095zm-10.742 149.245l-3.405 47.514 1.32.094 3.405-47.513-1.32-.095zm-25.6 101.155H18.128c-7.675 0-13.63-6.352-12.968-14.027L22.097 18.526c.53-7.675 7.277-14.027 15.084-14.027h322.06c7.675 0 13.629 6.352 12.967 14.027L355.14 256.712c-.53 7.807-7.278 14.027-14.952 14.027z" fill="#fff"/><path opacity=".2" d="M340.188 270.739H18.128c-7.675 0-13.63-6.352-12.968-14.027L22.097 18.526c.53-7.675 7.277-14.027 15.084-14.027h322.06c7.675 0 13.629 6.352 12.967 14.027L355.14 256.712c-.53 7.807-7.278 14.027-14.952 14.027z" fill="#fff"/><path opacity=".5" d="M100.693 260.153H25.537c-3.705 0-6.616-3.044-6.351-6.749l16.54-231.57c.264-3.705 3.572-6.749 7.277-6.749h75.156c3.705 0 6.616 3.044 6.352 6.749l-16.54 231.57c-.265 3.705-3.573 6.749-7.278 6.749z" fill="#F2F2F5"/><path opacity=".4" d="M97.782 47.637h-38.9c-3.309 0-5.955-2.646-5.69-6.087l.397-5.954c.264-3.308 3.175-6.087 6.483-6.087h38.901c3.308 0 5.955 2.779 5.69 6.087l-.397 5.954c-.132 3.44-3.176 6.087-6.484 6.087z" fill="#25DD7E"/><path d="M73.04 141.456H13.628c-5.822 0-10.321-4.763-9.924-10.586l4.234-59.546c.397-5.823 5.557-10.587 11.38-10.587h59.41c5.822 0 10.32 4.764 9.924 10.587l-4.235 59.414c-.397 5.822-5.557 10.718-11.379 10.718z" fill="#252E3D"/><path d="M81.507 92.628c-2.249 0-4.234 1.853-4.366 4.102l-.662 8.601c-.132 2.25 1.588 4.102 3.705 4.102h6.087c.53 0 1.058-.397 1.058-1.058l1.059-14.688c0-.53-.397-1.059-.926-1.059h-5.955zm-22.89-16.805H21.17c-.927 0-1.588-.794-1.456-1.588 0-.927.794-1.588 1.72-1.588H58.88c.926 0 1.588.794 1.456 1.588 0 .794-.794 1.588-1.72 1.588zm-.53 8.204H20.51c-.926 0-1.588-.794-1.455-1.588 0-.926.794-1.588 1.72-1.588H58.22c.926 0 1.587.794 1.455 1.588 0 .926-.794 1.588-1.588 1.588zm-13.628 8.336h-24.48c-.925 0-1.587-.793-1.455-1.588 0-.926.794-1.587 1.72-1.587h24.48c.926 0 1.587.794 1.455 1.587 0 .794-.794 1.588-1.72 1.588z" fill="#fff"/><path opacity=".5" d="M58.749 131.796H22.494c-3.837 0-6.748-3.175-6.484-7.013l1.324-19.055c.264-3.837 3.572-7.013 7.41-7.013h36.254c3.837 0 6.748 3.176 6.484 7.013l-1.323 19.055c-.265 3.838-3.573 7.013-7.41 7.013z" fill="#fff"/><path opacity=".4" d="M92.622 163.687h-45.12c-1.72 0-2.911-1.323-2.779-3.043.133-1.721 1.588-3.044 3.176-3.044h45.12c1.72 0 2.911 1.323 2.779 3.044-.133 1.587-1.588 3.043-3.176 3.043z" fill="#25DD7E"/><path opacity=".8" d="M83.492 175.464h-28.58c-1.72 0-2.911-1.323-2.779-3.043.132-1.721 1.588-3.044 3.176-3.044h28.58c1.72 0 2.911 1.323 2.779 3.044-.133 1.72-1.588 3.043-3.176 3.043z" fill="#fff"/><path opacity=".4" d="M90.24 196.372H45.12c-1.72 0-2.91-1.324-2.778-3.044.132-1.72 1.587-3.043 3.175-3.043h45.12c1.72 0 2.911 1.323 2.779 3.043-.132 1.588-1.588 3.044-3.176 3.044z" fill="#25DD7E"/><path opacity=".8" d="M81.11 208.149H52.53c-1.72 0-2.911-1.324-2.779-3.044.133-1.72 1.588-3.043 3.176-3.043h28.58c1.72 0 2.911 1.323 2.78 3.043 0 1.72-1.456 3.044-3.177 3.044z" fill="#fff"/><path opacity=".4" d="M87.859 228.924h-45.12c-1.72 0-2.911-1.323-2.78-3.044.133-1.72 1.589-3.043 3.176-3.043h45.12c1.72 0 2.912 1.323 2.78 3.043 0 1.721-1.456 3.044-3.176 3.044z" fill="#25DD7E"/><path opacity=".8" d="M78.729 240.833h-28.58c-1.72 0-2.912-1.323-2.78-3.043.133-1.721 1.588-3.044 3.176-3.044h28.58c1.72 0 2.912 1.323 2.78 3.044 0 1.72-1.456 3.043-3.176 3.043z" fill="#fff"/><path opacity=".5" d="M343.628 192.269c1.985-3.043 6.484-1.72 6.219 1.721l-4.367 60.605c-.264 3.176-2.514 5.69-5.292 5.69H122.129c-2.646 0-4.631-2.514-4.499-5.69l2.514-35.993c.397-4.896 5.293-8.336 9.792-6.881 12.305 3.838 22.89 1.588 32.55-3.308 20.906-10.454 38.504-32.684 62.586-32.684.926 0 1.852 0 2.778.132 35.858 2.117 46.708 46.579 74.495 46.579 8.204 0 15.746-3.573 22.229-8.601 8.072-6.22 14.555-14.556 19.054-21.57z" fill="#F2F2F5"/><path opacity=".5" d="M348.127 217.279l-2.647 37.316c-.264 3.176-2.514 5.69-5.292 5.69H122.129c-2.646 0-4.631-2.514-4.499-5.69l5.293-74.235c.397-5.028 7.013-7.278 9.659-3.043 7.013 10.586 17.73 24.348 30.036 31.096 4.763 2.647 9.659 4.235 14.687 4.235 17.598 0 32.55-20.908 50.545-36.787 10.983-9.792 23.024-17.599 37.446-17.599 30.168 0 34.535 48.96 59.146 55.709 4.763 1.323 10.188 1.059 16.804-1.456 3.705-1.588 7.145 1.059 6.881 4.764z" fill="#25DD7E"/><path opacity=".8" d="M349.318 202.723c-.133 0-.265 0-.265-.132l-.132-.132v-.133c0-.132 0-.264.132-.264.132-.133.397-.133.662 0a.409.409 0 01.132.264v.133s0 .132-.132.132c-.265.132-.397.132-.397.132zM137.213 233.82c-.265 0-.397-.133-.397-.397 0-.265.265-.397.397-.397.265 0 .397.265.397.397s-.132.397-.397.397zm-4.499-.265c-.264 0-.397-.264-.397-.529s.265-.397.53-.397c.264 0 .396.265.396.529-.132.265-.264.397-.529.397zm8.469-.397c0-.264.132-.529.396-.529.265 0 .53.132.53.397s-.133.529-.397.529c-.265 0-.529-.264-.529-.397zm-12.968-.264c-.264 0-.397-.265-.397-.53 0-.264.265-.397.53-.397.264 0 .397.265.397.53-.133.132-.265.397-.53.397zm17.466-.53c0-.264.133-.529.265-.529.265 0 .529.132.529.265 0 .264-.132.529-.264.529h-.133c-.264.132-.397 0-.397-.265zm144.623.265c-.265 0-.397-.265-.397-.397 0-.265.265-.397.397-.397.265 0 .397.265.397.397.132.132-.132.397-.397.397zm4.102-.662c0-.264.132-.529.397-.529s.529.132.529.397-.132.529-.397.529c-.264 0-.529-.132-.529-.397zm-8.601.265c-.264 0-.397-.265-.397-.529 0-.265.265-.397.53-.397.264 0 .397.264.397.529s-.265.529-.53.397c0 .132 0 .132 0 0zm-161.956-.529c-.265-.133-.397-.265-.265-.53.133-.264.265-.397.53-.264.264.132.397.264.264.529-.132.265-.264.265-.529.265zm174.923-.397c0-.265.133-.53.397-.53.265 0 .53.133.53.397 0 .265-.133.53-.397.53h-.133c-.132 0-.264-.133-.397-.397zm-17.333.132c-.265 0-.397-.265-.265-.529 0-.265.265-.397.529-.265.265 0 .397.265.265.529-.132.133-.265.265-.529.265zm-131.524-.397c-.132-.265 0-.529.265-.529.265-.133.529 0 .529.264.133.265 0 .53-.264.53h-.133c-.132.132-.264 0-.397-.265zm153.356-.662c0-.264.133-.529.265-.529.264 0 .529.132.529.265 0 .264-.132.529-.265.529h-.132c-.264 0-.397-.132-.397-.265zm-26.199-.264c-.264-.133-.397-.397-.264-.53.132-.264.397-.397.529-.264.265.132.397.397.265.529 0 .132-.265.265-.397.265-.133.132-.133.132-.133 0zm-123.055-.794c-.132-.265 0-.53.133-.662.264-.132.529 0 .661.265.133.264 0 .529-.132.661h-.265c-.132 0-.264-.132-.397-.264zm153.488-.265c-.132-.265 0-.529.265-.529.265-.133.529 0 .529.264.133.265 0 .53-.264.53h-.133c-.132 0-.264-.133-.397-.265zm-34.667-.662c-.264-.132-.264-.397-.264-.661.132-.265.397-.265.661-.265.265.132.265.397.265.662-.133.132-.265.264-.397.264-.132.133-.132.133-.265 0zm38.902-.926c-.133-.264 0-.529.264-.529.265-.132.529 0 .529.265.133.264 0 .529-.264.661h-.133c-.132-.132-.396-.265-.396-.397zm-153.753-.264c-.132-.265 0-.53.132-.662.265-.132.529-.132.662.132.132.265 0 .53-.133.662 0 0-.132.132-.264.132-.133-.132-.397-.132-.397-.264zm110.882-.794c-.265-.133-.265-.397-.133-.662.133-.265.397-.265.662-.132.265.132.265.397.132.661-.132.133-.264.265-.397.265-.132-.132-.264-.132-.264-.132zm46.972-.794c-.132-.265 0-.53.265-.662s.529 0 .662.265c.132.264 0 .529-.265.661h-.132c-.265 0-.53-.132-.53-.264zm-154.149-.927c-.133-.264-.133-.529.132-.661.265-.133.529-.133.662.132.132.265.132.529-.133.662-.132 0-.132.132-.264.132-.133-.132-.265-.132-.397-.265zm103.207-.529c-.264-.132-.264-.397-.132-.662.132-.264.397-.264.661-.132.265.132.265.397.133.662-.133.132-.265.264-.397.264-.133-.132-.133-.132-.265-.132zm54.912-.529c-.132-.265 0-.53.132-.662.265-.132.529 0 .662.132.132.265 0 .53-.133.662h-.264c-.132.132-.265 0-.397-.132zm-154.547-1.721c-.132-.264-.132-.529 0-.661.133-.132.53-.132.662.132.132.133.132.529 0 .662-.132 0-.132.132-.265.132-.132 0-.264-.132-.397-.265zm95.798-.132c-.265-.132-.265-.397-.132-.661.132-.265.397-.265.661-.133.133.133.265.397.133.662-.133.132-.265.264-.397.264 0-.132-.133-.132-.265-.132zm62.718-.397c-.132-.264 0-.529.133-.661.264-.133.529 0 .661.132.133.265 0 .529-.132.662h-.265c-.132.132-.264 0-.397-.133zm-66.423-2.117c-.265-.132-.265-.397-.132-.662.132-.132.397-.264.661-.132.265.132.265.397.133.662-.133.132-.265.132-.397.132h-.265zm70.261-.132c-.133-.265 0-.53.132-.662.265-.132.529 0 .661.132.133.265.001.53-.132.662 0 0-.132.132-.264.132-.133-.132-.265-.132-.397-.264zm-158.913 0c-.133-.133-.133-.53 0-.662.132-.132.529-.132.661 0 .132.265.132.529-.132.662-.133.132-.133.132-.265.132 0 0-.132 0-.264-.132zm162.617-2.515c-.132-.264-.132-.529.133-.661.264-.133.529-.132.661.132.133.265.133.529-.132.662-.132 0-.132.132-.265.132-.132-.132-.264-.132-.397-.265zm-77.67.133c-.264-.133-.264-.397-.132-.662.132-.264.397-.265.661-.132.265.132.265.397.133.661-.133.133-.265.265-.397.265-.132-.132-.132-.132-.265-.132zm-81.375-.53c-.132-.132-.132-.529 0-.661s.529-.132.662 0c.132.132.132.529 0 .661-.133.133-.133.133-.265.133-.265 0-.397 0-.397-.133zm77.67-1.984c-.264-.133-.264-.397-.132-.662s.397-.265.662-.132c.264.132.264.397.132.661-.132.133-.265.133-.397.133-.132.132-.265 0-.265 0zm85.08-.265c-.132-.132-.132-.529.133-.662.132-.132.529-.132.661.133.133.132.133.529-.132.661-.132 0-.132.133-.265.133-.132 0-.264-.133-.397-.265zm-159.31-.662c-.132-.132-.132-.529 0-.661.265-.133.53-.133.662 0 .132.132.132.529 0 .661-.132.133-.132.133-.265.133-.264.132-.397 0-.397-.133zm70.393-1.455c-.264-.133-.265-.397-.132-.662.132-.265.397-.265.661-.132.265.132.265.397.133.661-.133.133-.265.265-.397.265-.133-.132-.133-.132-.265-.132zm92.49-.53c-.132-.264-.132-.529.132-.661.133-.133.53-.133.662.132.132.132.132.529-.132.662-.133 0-.133.132-.265.132-.132-.132-.265-.132-.397-.265zm-159.442-.794c-.133-.264-.133-.529.132-.661.132-.132.529-.132.661.132.133.132.133.529-.132.662-.132 0-.132.132-.264.132-.133 0-.265-.132-.397-.265zm63.115-1.058c-.265-.132-.265-.397-.132-.662.132-.264.397-.264.661-.132.265.132.265.397.133.662-.133.132-.265.264-.397.264-.133 0-.133 0-.265-.132zm99.9-.926c-.133-.133-.133-.53 0-.662.264-.132.529-.132.661 0s.132.529 0 .662c-.132 0-.265.132-.265.132-.132 0-.264 0-.396-.132zm-159.311-.53c-.132-.264-.132-.529.133-.661.264-.133.529-.133.661.132.133.265.133.529-.132.662-.132 0-.132.132-.265.132-.132-.132-.397-.265-.397-.265zm55.441-.661c-.264-.133-.264-.397-.132-.662s.397-.265.662-.265c.264.133.264.397.132.662-.132.132-.265.265-.397.265 0 .132-.132.132-.265 0zm107.31-1.721c-.133-.132-.133-.529 0-.661.132-.133.529-.133.661 0 .133.132.133.529 0 .661-.132.133-.132.133-.264.133-.133 0-.265 0-.397-.133zm-158.913-.132c-.133-.265 0-.529.132-.662.265-.132.529 0 .662.133.132.264 0 .529-.133.661h-.264c-.265.133-.397.133-.397-.132zm47.634 0c-.265-.132-.265-.397-.265-.662.133-.264.397-.264.662-.264.264.132.264.397.264.661 0 .133-.264.265-.396.265h-.265zm-4.102-1.72c-.265-.132-.397-.397-.265-.529.133-.265.397-.397.53-.265.264.132.397.397.264.529 0 .133-.264.265-.397.265h-.132zm-39.563-.265c-.132-.264 0-.529.265-.661.264-.133.529 0 .661.264.133.265 0 .53-.264.662h-.133c-.396 0-.529-.132-.529-.265zm35.329-1.058c-.265-.133-.397-.265-.265-.53 0-.264.265-.397.53-.264.264 0 .396.264.264.529 0 .132-.264.265-.529.265.132 0 0 0 0 0zm-31.227-.662c-.132-.265 0-.529.265-.529.264-.133.529 0 .529.264.132.265 0 .53-.265.53h-.132c-.132 0-.397-.133-.397-.265zm26.86-.529c-.264 0-.397-.265-.397-.53 0-.264.265-.397.53-.397.264 0 .397.265.397.53 0 .264-.133.397-.53.397.133 0 .133 0 0 0zm-22.626-.662c0-.265.133-.529.397-.529.265 0 .529.132.529.397 0 .264-.132.529-.397.529h-.132l-.397-.397zm18.26 0c-.265 0-.397-.265-.397-.529 0-.265.265-.397.529-.397.265 0 .397.264.397.529 0 .132-.264.397-.529.397zm-13.761-.794c0-.265.132-.397.397-.529.265 0 .529.132.529.397 0 .264-.132.529-.397.529-.264 0-.529-.132-.529-.397zm9.394.265c-.264 0-.396-.265-.396-.53 0-.264.264-.397.529-.397.264 0 .397.265.397.53-.133.264-.265.397-.53.397zm-4.895-.53c0-.264.132-.397.397-.397.264 0 .397.133.397.397 0 .265-.265.397-.397.397-.265 0-.397-.132-.397-.397zm-88.52 30.832h-.133s-.132 0-.132-.132l-.132-.132v-.133c0-.132 0-.264.132-.264l.132-.133h.397s.132 0 .132.133c.133.132.133.132.133.264v.133s0 .132-.133.132l-.132.132h-.264z" fill="#fff"/><path d="M191.992 94.878l-3.043-3.308c-5.425 5.16-12.835 8.336-20.641 8.336-13.1 0-23.421-8.866-25.802-20.907l-4.631 1.19-4.235 1.06c1.191 6.35 4.102 12.04 8.469 16.672 13.364 14.424 37.181 14.424 52.794 0l-2.911-3.043z" fill="#fff"/><path d="M198.608 45.123l-4.102 3.838-2.778 2.646c4.763 5.16 7.41 12.174 6.88 19.981-.529 7.808-4.234 14.82-9.659 19.982l2.382 2.646 3.44 3.705c7.542-7.013 12.041-16.54 12.835-26.333.794-9.924-2.514-19.452-8.998-26.465z" fill="#25DD7E"/><path d="M198.608 45.123c-13.496-14.423-37.181-14.423-52.794 0-10.056 9.395-14.688 23.157-12.174 35.993l5.293-1.323 3.573-.927c-.397-2.382-.662-4.763-.397-7.278 1.058-15.614 14.687-28.317 30.3-28.317 7.807 0 14.688 3.175 19.451 8.336l3.573-3.308 3.175-3.176z" fill="#25DD7E"/><path d="M236.583 94.878l3.573-3.308c-4.764-5.161-7.41-12.174-6.881-19.982.927-13.1 10.586-24.083 22.891-27.259l-.926-4.499-.794-4.102c-6.483 1.72-12.438 5.028-17.466 9.66-15.349 14.159-17.069 37.977-3.572 52.533l3.175-3.043z" fill="#fff"/><path d="M286.07 97.921l-3.44-3.837-2.382-2.647c-5.425 5.16-12.835 8.337-20.642 8.337-7.806 0-14.687-3.176-19.45-8.337l-2.779 2.647-3.969 3.705c6.483 7.013 15.745 10.983 25.537 10.983 9.924 0 19.715-3.97 27.125-10.85z" fill="#25DD7E"/><path d="M286.07 97.921c15.481-14.423 17.201-38.242 3.837-52.798-8.733-9.395-22.229-13.1-35.329-9.66l1.059 5.161.662 3.573c2.381-.662 4.895-.927 7.409-.927 15.614 0 27.39 12.704 26.199 28.318-.529 7.808-4.234 14.82-9.659 19.982l3.043 3.308 2.779 3.043z" fill="#25DD7E"/><path opacity=".3" d="M348.656 37.58c.794 0 1.456.265 1.985.794.529.53.794 1.191.661 1.985l-1.587 22.76c-.133 1.588-1.588 3.044-3.176 3.044H323.78c-.794 0-1.455-.265-1.984-.794-.53-.53-.794-1.191-.662-1.985l1.588-22.76c.132-1.588 1.588-3.044 3.175-3.044h22.759zm0-1.19h-22.759c-2.249 0-4.234 1.852-4.366 4.102l-1.588 22.76c-.132 2.25 1.588 4.102 3.837 4.102h22.759c2.249 0 4.234-1.853 4.366-4.102l1.588-22.76c.133-2.25-1.588-4.102-3.837-4.102zm-2.911 40.359c.794 0 1.456.265 1.985.794.529.53.794 1.19.661 1.985l-1.587 22.76c-.133 1.588-1.588 3.043-3.176 3.043h-22.759c-.794 0-1.455-.264-1.984-.794-.53-.529-.794-1.19-.662-1.984l1.588-22.76c.132-1.588 1.588-3.044 3.175-3.044h22.759zm0-1.059h-22.759c-2.249 0-4.234 1.853-4.366 4.103l-1.588 22.76c-.132 2.249 1.588 4.102 3.837 4.102h22.759c2.249 0 4.234-1.853 4.366-4.102l1.588-22.76c.133-2.382-1.588-4.103-3.837-4.103z" fill="#191919"/><path d="M312.401 203.12c.662 0 1.191.265 1.588.662s.661 1.058.529 1.72c-.132 1.456-1.323 2.514-2.778 2.514a2.19 2.19 0 01-1.588-.661c-.397-.397-.662-1.059-.53-1.721.133-1.455 1.324-2.514 2.779-2.514zm0-1.191c-1.985 0-3.705 1.588-3.837 3.573-.132 1.985 1.323 3.573 3.308 3.573 1.985 0 3.705-1.588 3.837-3.573.132-1.985-1.323-3.573-3.308-3.573z" fill="#252E3D"/><path d="M312.666 201.929h-.53v-1.191h.662l-.132 1.191z" fill="#407BFF"/><path d="M312.93 198.356h-.529l.132-2.381h.53l-.133 2.381zm.397-4.763h-.529l.132-2.382h.53l-.133 2.382zm.265-4.764h-.529l.132-2.382h.529l-.132 2.382zm.397-4.764h-.529l.132-2.382h.529l-.132 2.382zm.265-4.763h-.53l.133-2.382h.529l-.132 2.382zm.396-4.764h-.529l.133-2.382h.529l-.133 2.382zm.397-4.764h-.529l.132-2.382h.53l-.133 2.382zm.265-4.896h-.529l.132-2.382h.529l-.132 2.382zm.397-4.764h-.529l.132-2.382h.529l-.132 2.382zm.265-4.763h-.53l.133-2.382h.529l-.132 2.382zm.397-4.764h-.53l.133-2.382h.529l-.132 2.382z" fill="#252E3D"/><path d="M316.173 144.611l-.085 1.188.528.037.085-1.188-.528-.037z" fill="#407BFF"/><path d="M341.114 145.294H131.656c-1.191 0-2.25-.529-3.044-1.323-.794-.794-1.19-1.985-1.058-3.176l1.058-14.424c.133-2.382 2.25-4.367 4.631-4.367h209.459c1.191 0 2.249.53 3.043 1.324s1.191 1.985 1.059 3.176l-1.059 14.423a4.642 4.642 0 01-4.631 4.367zm-207.871-21.966c-1.72 0-3.307 1.455-3.44 3.176l-1.058 14.423c0 .794.264 1.588.794 2.25.529.529 1.323.926 2.117.926h209.458c1.72 0 3.308-1.456 3.44-3.176l1.059-14.423c0-.794-.265-1.588-.794-2.25-.529-.529-1.323-.926-2.117-.926H133.243z" fill="#191919"/><path opacity=".8" fill-rule="evenodd" clip-rule="evenodd" d="M336.615 131.267H138.007c-1.059 0-1.853-.926-1.853-1.985.133-1.058 1.059-1.985 2.118-1.985H336.88c1.058 0 1.852.927 1.852 1.985 0 1.191-1.058 1.985-2.117 1.985zm-33.079 8.337H137.478c-1.059 0-1.853-.927-1.853-1.985.133-1.059 1.059-1.985 2.117-1.985H303.8c1.059 0 1.853.926 1.853 1.985-.132 1.058-1.059 1.985-2.117 1.985z" fill="#fff"/></svg>