<svg width="382" height="359" viewBox="0 0 382 359" fill="none" xmlns="http://www.w3.org/2000/svg">
<path d="M344.554 275.238H20.3769C10.4531 275.238 2.91099 267.166 3.70489 257.241L20.9061 17.9963C21.5677 8.07188 30.3007 0 40.0921 0H364.137C374.061 0 381.603 8.07188 380.809 17.9963L363.608 257.241C363.079 267.166 354.478 275.238 344.554 275.238Z" fill="#191919"/>
<path d="M269.133 359H163.941L145.152 228.924H250.344L269.133 359Z" fill="#191919"/>
<path d="M252.461 351.193H138.669L136.419 359H250.212L252.461 351.193Z" fill="#252E3D"/>
<path d="M255.902 291.514L153.356 285.956L145.152 228.924H246.904L255.902 291.514Z" fill="#252E3D"/>
<path d="M340.849 275.238H16.8043C6.8805 275.238 -0.661585 267.166 0.132319 257.241L17.2012 17.9963C17.8628 8.07188 26.5958 0 36.5196 0H360.565C370.488 0 378.03 8.07188 377.237 17.9963L360.035 257.241C359.506 267.166 350.773 275.238 340.849 275.238Z" fill="#191919"/>
<path d="M376.53 20.3387L366.68 157.6L368 157.694L377.85 20.4334L376.53 20.3387Z" fill="white"/>
<path d="M365.788 169.584L362.383 217.098L363.703 217.192L367.108 169.679L365.788 169.584Z" fill="white"/>
<path d="M340.188 270.739H18.1275C10.4531 270.739 4.49878 264.387 5.16037 256.712L22.097 18.5256C22.6263 10.8507 29.3744 4.49908 37.1812 4.49908H359.241C366.916 4.49908 372.87 10.8507 372.208 18.5256L355.14 256.712C354.61 264.519 347.862 270.739 340.188 270.739Z" fill="white"/>
<path opacity="0.2" d="M340.188 270.739H18.1275C10.4531 270.739 4.49878 264.387 5.16037 256.712L22.097 18.5256C22.6263 10.8507 29.3744 4.49908 37.1812 4.49908H359.241C366.916 4.49908 372.87 10.8507 372.208 18.5256L355.14 256.712C354.61 264.519 347.862 270.739 340.188 270.739Z" fill="white"/>
<path opacity="0.5" d="M100.693 260.153H25.5372C21.8323 260.153 18.9214 257.109 19.186 253.404L35.7257 21.8338C35.9903 18.1286 39.2982 15.0851 43.0031 15.0851H118.159C121.864 15.0851 124.775 18.1286 124.511 21.8338L107.971 253.404C107.706 257.109 104.398 260.153 100.693 260.153Z" fill="#F2F2F5"/>
<path opacity="0.4" d="M97.7825 47.6373H58.8812C55.5732 47.6373 52.9269 44.9908 53.1915 41.5503L53.5885 35.5957C53.8531 32.2875 56.7641 29.5087 60.072 29.5087H98.9733C102.281 29.5087 104.928 32.2875 104.663 35.5957L104.266 41.5503C104.134 44.9908 101.09 47.6373 97.7825 47.6373Z" fill="#25DD7E"/>
<path d="M73.0391 141.456H13.6287C7.80671 141.456 3.30793 136.693 3.70488 130.87L7.93903 71.3236C8.33598 65.5013 13.4964 60.7375 19.3183 60.7375H78.7288C84.5507 60.7375 89.0495 65.5013 88.6526 71.3236L84.4184 130.738C84.0215 136.56 78.8611 141.456 73.0391 141.456Z" fill="#252E3D"/>
<path d="M81.5074 92.6281C79.258 92.6281 77.2733 94.4806 77.141 96.7302L76.4794 105.331C76.3471 107.581 78.0672 109.433 80.1843 109.433H86.2709C86.8001 109.433 87.3294 109.036 87.3294 108.375L88.3879 93.6867C88.3879 93.1574 87.991 92.6281 87.4617 92.6281H81.5074Z" fill="white"/>
<path d="M58.6165 75.8227H21.1708C20.2445 75.8227 19.583 75.0287 19.7153 74.2348C19.7153 73.3085 20.5092 72.6469 21.4354 72.6469H58.8812C59.8074 72.6469 60.469 73.4408 60.3367 74.2348C60.3367 75.0287 59.5428 75.8227 58.6165 75.8227Z" fill="white"/>
<path d="M58.0873 84.0269H20.5092C19.5829 84.0269 18.9214 83.2329 19.0537 82.439C19.0537 81.5127 19.8476 80.8511 20.7738 80.8511H58.2196C59.1458 80.8511 59.8074 81.645 59.6751 82.439C59.6751 83.3653 58.8812 84.0269 58.0873 84.0269Z" fill="white"/>
<path d="M44.4586 92.3634H19.9799C19.0537 92.3634 18.3921 91.5695 18.5244 90.7755C18.5244 89.8492 19.3183 89.1876 20.2445 89.1876H44.7232C45.6495 89.1876 46.311 89.9816 46.1787 90.7755C46.1787 91.5695 45.3848 92.3634 44.4586 92.3634Z" fill="white"/>
<path opacity="0.5" d="M58.7489 131.796H22.4939C18.6567 131.796 15.7458 128.621 16.0104 124.783L17.3336 105.728C17.5982 101.891 20.9061 98.715 24.7433 98.715H60.9983C64.8355 98.715 67.7464 101.891 67.4818 105.728L66.1586 124.783C65.894 128.621 62.5861 131.796 58.7489 131.796Z" fill="white"/>
<path opacity="0.4" d="M92.6221 163.687H47.5019C45.7818 163.687 44.5909 162.364 44.7232 160.644C44.8556 158.923 46.311 157.6 47.8989 157.6H93.019C94.7392 157.6 95.93 158.923 95.7977 160.644C95.6654 162.231 94.2099 163.687 92.6221 163.687Z" fill="#25DD7E"/>
<path opacity="0.8" d="M83.4922 175.464H54.9117C53.1915 175.464 52.0007 174.141 52.133 172.421C52.2653 170.7 53.7208 169.377 55.3086 169.377H83.8891C85.6093 169.377 86.8001 170.7 86.6678 172.421C86.5355 174.141 85.08 175.464 83.4922 175.464Z" fill="white"/>
<path opacity="0.4" d="M90.2404 196.372H45.1202C43.4001 196.372 42.2092 195.048 42.3415 193.328C42.4738 191.608 43.9293 190.285 45.5171 190.285H90.6373C92.3575 190.285 93.5483 191.608 93.416 193.328C93.2837 194.916 91.8282 196.372 90.2404 196.372Z" fill="#25DD7E"/>
<path opacity="0.8" d="M81.1105 208.149H52.53C50.8098 208.149 49.619 206.825 49.7513 205.105C49.8836 203.385 51.3391 202.062 52.9269 202.062H81.5074C83.2276 202.062 84.4184 203.385 84.2861 205.105C84.2861 206.825 82.8306 208.149 81.1105 208.149Z" fill="white"/>
<path opacity="0.4" d="M87.8587 228.924H42.7385C41.0184 228.924 39.8275 227.601 39.9598 225.88C40.0921 224.16 41.5476 222.837 43.1354 222.837H88.2556C89.9757 222.837 91.1666 224.16 91.0343 225.88C91.0343 227.601 89.5788 228.924 87.8587 228.924Z" fill="#25DD7E"/>
<path opacity="0.8" d="M78.7288 240.833H50.1482C48.4281 240.833 47.2373 239.51 47.3696 237.79C47.5019 236.069 48.9574 234.746 50.5452 234.746H79.1257C80.8459 234.746 82.0367 236.069 81.9044 237.79C81.9044 239.51 80.4489 240.833 78.7288 240.833Z" fill="white"/>
<path opacity="0.5" d="M343.628 192.269C345.613 189.226 350.112 190.549 349.847 193.99L345.48 254.595C345.216 257.771 342.966 260.285 340.188 260.285H122.129C119.483 260.285 117.498 257.771 117.63 254.595L120.144 218.602C120.541 213.706 125.437 210.266 129.936 211.721C142.241 215.559 152.826 213.309 162.486 208.413C183.392 197.959 200.99 175.729 225.072 175.729C225.998 175.729 226.924 175.729 227.85 175.861C263.708 177.978 274.558 222.44 302.345 222.44C310.549 222.44 318.091 218.867 324.574 213.839C332.646 207.619 339.129 199.283 343.628 192.269Z" fill="#F2F2F5"/>
<path opacity="0.5" d="M348.127 217.279L345.48 254.595C345.216 257.771 342.966 260.285 340.188 260.285H122.129C119.483 260.285 117.498 257.771 117.63 254.595L122.923 180.36C123.32 175.332 129.936 173.082 132.582 177.317C139.595 187.903 150.312 201.665 162.618 208.413C167.381 211.06 172.277 212.648 177.305 212.648C194.903 212.648 209.855 191.74 227.85 175.861C238.833 166.069 250.874 158.262 265.296 158.262C295.464 158.262 299.831 207.222 324.442 213.971C329.205 215.294 334.63 215.03 341.246 212.515C344.951 210.927 348.391 213.574 348.127 217.279Z" fill="#25DD7E"/>
<g opacity="0.8">
<path opacity="0.8" d="M349.318 202.723C349.185 202.723 349.053 202.723 349.053 202.591L348.921 202.459V202.326C348.921 202.194 348.921 202.062 349.053 202.062C349.185 201.929 349.45 201.929 349.715 202.062C349.847 202.194 349.847 202.326 349.847 202.326V202.459C349.847 202.459 349.847 202.591 349.715 202.591C349.45 202.723 349.318 202.723 349.318 202.723Z" fill="white"/>
<path opacity="0.8" d="M137.213 233.82C136.948 233.82 136.816 233.687 136.816 233.423C136.816 233.158 137.081 233.026 137.213 233.026C137.478 233.026 137.61 233.291 137.61 233.423C137.61 233.555 137.478 233.82 137.213 233.82ZM132.714 233.555C132.45 233.555 132.317 233.291 132.317 233.026C132.317 232.761 132.582 232.629 132.847 232.629C133.111 232.629 133.243 232.894 133.243 233.158C133.111 233.423 132.979 233.555 132.714 233.555ZM141.183 233.158C141.183 232.894 141.315 232.629 141.579 232.629C141.844 232.629 142.109 232.761 142.109 233.026C142.109 233.291 141.976 233.555 141.712 233.555C141.447 233.555 141.183 233.291 141.183 233.158ZM128.215 232.894C127.951 232.894 127.818 232.629 127.818 232.364C127.818 232.1 128.083 231.967 128.348 231.967C128.612 231.967 128.745 232.232 128.745 232.497C128.612 232.629 128.48 232.894 128.215 232.894ZM145.681 232.364C145.681 232.1 145.814 231.835 145.946 231.835C146.211 231.835 146.475 231.967 146.475 232.1C146.475 232.364 146.343 232.629 146.211 232.629H146.078C145.814 232.761 145.681 232.629 145.681 232.364ZM290.304 232.629C290.039 232.629 289.907 232.364 289.907 232.232C289.907 231.967 290.172 231.835 290.304 231.835C290.569 231.835 290.701 232.1 290.701 232.232C290.833 232.364 290.569 232.629 290.304 232.629ZM294.406 231.967C294.406 231.703 294.538 231.438 294.803 231.438C295.068 231.438 295.332 231.57 295.332 231.835C295.332 232.1 295.2 232.364 294.935 232.364C294.671 232.364 294.406 232.232 294.406 231.967ZM285.805 232.232C285.541 232.232 285.408 231.967 285.408 231.703C285.408 231.438 285.673 231.306 285.938 231.306C286.202 231.306 286.335 231.57 286.335 231.835C286.335 232.1 286.07 232.364 285.805 232.232C285.805 232.364 285.805 232.364 285.805 232.232ZM123.849 231.703C123.584 231.57 123.452 231.438 123.584 231.173C123.717 230.909 123.849 230.776 124.114 230.909C124.378 231.041 124.511 231.173 124.378 231.438C124.246 231.703 124.114 231.703 123.849 231.703ZM298.772 231.306C298.772 231.041 298.905 230.776 299.169 230.776C299.434 230.776 299.699 230.909 299.699 231.173C299.699 231.438 299.566 231.703 299.302 231.703C299.302 231.703 299.302 231.703 299.169 231.703C299.037 231.703 298.905 231.57 298.772 231.306ZM281.439 231.438C281.174 231.438 281.042 231.173 281.174 230.909C281.174 230.644 281.439 230.512 281.703 230.644C281.968 230.644 282.1 230.909 281.968 231.173C281.836 231.306 281.703 231.438 281.439 231.438ZM149.915 231.041C149.783 230.776 149.915 230.512 150.18 230.512C150.445 230.379 150.709 230.512 150.709 230.776C150.842 231.041 150.709 231.306 150.445 231.306H150.312C150.18 231.438 150.048 231.306 149.915 231.041ZM303.271 230.379C303.271 230.115 303.404 229.85 303.536 229.85C303.8 229.85 304.065 229.982 304.065 230.115C304.065 230.379 303.933 230.644 303.8 230.644H303.668C303.404 230.644 303.271 230.512 303.271 230.379ZM277.072 230.115C276.808 229.982 276.675 229.718 276.808 229.585C276.94 229.321 277.205 229.188 277.337 229.321C277.602 229.453 277.734 229.718 277.602 229.85C277.602 229.982 277.337 230.115 277.205 230.115C277.072 230.247 277.072 230.247 277.072 230.115ZM154.017 229.321C153.885 229.056 154.017 228.791 154.15 228.659C154.414 228.527 154.679 228.659 154.811 228.924C154.944 229.188 154.811 229.453 154.679 229.585C154.679 229.585 154.547 229.585 154.414 229.585C154.282 229.585 154.15 229.453 154.017 229.321ZM307.505 229.056C307.373 228.791 307.505 228.527 307.77 228.527C308.035 228.394 308.299 228.527 308.299 228.791C308.432 229.056 308.299 229.321 308.035 229.321H307.902C307.77 229.321 307.638 229.188 307.505 229.056ZM272.838 228.394C272.574 228.262 272.574 227.997 272.574 227.733C272.706 227.468 272.971 227.468 273.235 227.468C273.5 227.6 273.5 227.865 273.5 228.13C273.367 228.262 273.235 228.394 273.103 228.394C272.971 228.527 272.971 228.527 272.838 228.394ZM311.74 227.468C311.607 227.204 311.74 226.939 312.004 226.939C312.269 226.807 312.533 226.939 312.533 227.204C312.666 227.468 312.533 227.733 312.269 227.865H312.136C312.004 227.733 311.74 227.6 311.74 227.468ZM157.987 227.204C157.855 226.939 157.987 226.674 158.119 226.542C158.384 226.41 158.648 226.41 158.781 226.674C158.913 226.939 158.781 227.204 158.648 227.336C158.648 227.336 158.516 227.468 158.384 227.468C158.251 227.336 157.987 227.336 157.987 227.204ZM268.869 226.41C268.604 226.277 268.604 226.013 268.736 225.748C268.869 225.483 269.133 225.483 269.398 225.616C269.663 225.748 269.663 226.013 269.53 226.277C269.398 226.41 269.266 226.542 269.133 226.542C269.001 226.41 268.869 226.41 268.869 226.41ZM315.841 225.616C315.709 225.351 315.841 225.086 316.106 224.954C316.371 224.822 316.635 224.954 316.768 225.219C316.9 225.483 316.768 225.748 316.503 225.88H316.371C316.106 225.88 315.841 225.748 315.841 225.616ZM161.692 224.689C161.559 224.425 161.559 224.16 161.824 224.028C162.089 223.895 162.353 223.895 162.486 224.16C162.618 224.425 162.618 224.689 162.353 224.822C162.221 224.822 162.221 224.954 162.089 224.954C161.956 224.822 161.824 224.822 161.692 224.689ZM264.899 224.16C264.635 224.028 264.635 223.763 264.767 223.498C264.899 223.234 265.164 223.234 265.428 223.366C265.693 223.498 265.693 223.763 265.561 224.028C265.428 224.16 265.296 224.292 265.164 224.292C265.031 224.16 265.031 224.16 264.899 224.16ZM319.811 223.631C319.679 223.366 319.811 223.101 319.943 222.969C320.208 222.837 320.472 222.969 320.605 223.101C320.737 223.366 320.605 223.631 320.472 223.763C320.472 223.763 320.34 223.763 320.208 223.763C320.076 223.895 319.943 223.763 319.811 223.631ZM165.264 221.91C165.132 221.646 165.132 221.381 165.264 221.249C165.397 221.117 165.794 221.117 165.926 221.381C166.058 221.514 166.058 221.91 165.926 222.043C165.794 222.043 165.794 222.175 165.661 222.175C165.529 222.175 165.397 222.043 165.264 221.91ZM261.062 221.778C260.797 221.646 260.797 221.381 260.93 221.117C261.062 220.852 261.327 220.852 261.591 220.984C261.724 221.117 261.856 221.381 261.724 221.646C261.591 221.778 261.459 221.91 261.327 221.91C261.327 221.778 261.194 221.778 261.062 221.778ZM323.78 221.381C323.648 221.117 323.78 220.852 323.913 220.72C324.177 220.587 324.442 220.72 324.574 220.852C324.707 221.117 324.574 221.381 324.442 221.514C324.31 221.514 324.31 221.514 324.177 221.514C324.045 221.646 323.913 221.514 323.78 221.381ZM257.357 219.264C257.092 219.132 257.092 218.867 257.225 218.602C257.357 218.47 257.622 218.338 257.886 218.47C258.151 218.602 258.151 218.867 258.019 219.132C257.886 219.264 257.754 219.264 257.622 219.264C257.489 219.264 257.489 219.264 257.357 219.264ZM327.618 219.132C327.485 218.867 327.618 218.602 327.75 218.47C328.015 218.338 328.279 218.47 328.411 218.602C328.544 218.867 328.412 219.132 328.279 219.264C328.279 219.264 328.147 219.396 328.015 219.396C327.882 219.264 327.75 219.264 327.618 219.132ZM168.705 219.132C168.572 218.999 168.572 218.602 168.705 218.47C168.837 218.338 169.234 218.338 169.366 218.47C169.498 218.735 169.498 218.999 169.234 219.132C169.101 219.264 169.101 219.264 168.969 219.264C168.969 219.264 168.837 219.264 168.705 219.132ZM331.322 216.617C331.19 216.353 331.19 216.088 331.455 215.956C331.719 215.823 331.984 215.824 332.116 216.088C332.249 216.353 332.249 216.617 331.984 216.75C331.852 216.75 331.852 216.882 331.719 216.882C331.587 216.75 331.455 216.75 331.322 216.617ZM253.652 216.75C253.388 216.617 253.388 216.353 253.52 216.088C253.652 215.824 253.917 215.823 254.181 215.956C254.446 216.088 254.446 216.353 254.314 216.617C254.181 216.75 254.049 216.882 253.917 216.882C253.785 216.75 253.785 216.75 253.652 216.75ZM172.277 216.22C172.145 216.088 172.145 215.691 172.277 215.559C172.409 215.427 172.806 215.427 172.939 215.559C173.071 215.691 173.071 216.088 172.939 216.22C172.806 216.353 172.806 216.353 172.674 216.353C172.409 216.353 172.277 216.353 172.277 216.22ZM249.947 214.236C249.683 214.103 249.683 213.839 249.815 213.574C249.947 213.309 250.212 213.309 250.477 213.442C250.741 213.574 250.741 213.839 250.609 214.103C250.477 214.236 250.344 214.236 250.212 214.236C250.08 214.368 249.947 214.236 249.947 214.236ZM335.027 213.971C334.895 213.839 334.895 213.442 335.16 213.309C335.292 213.177 335.689 213.177 335.821 213.442C335.954 213.574 335.954 213.971 335.689 214.103C335.557 214.103 335.557 214.236 335.424 214.236C335.292 214.236 335.16 214.103 335.027 213.971ZM175.717 213.309C175.585 213.177 175.585 212.78 175.717 212.648C175.982 212.515 176.247 212.515 176.379 212.648C176.511 212.78 176.511 213.177 176.379 213.309C176.247 213.442 176.247 213.442 176.114 213.442C175.85 213.574 175.717 213.442 175.717 213.309ZM246.11 211.854C245.846 211.721 245.845 211.457 245.978 211.192C246.11 210.927 246.375 210.927 246.639 211.06C246.904 211.192 246.904 211.457 246.772 211.721C246.639 211.854 246.507 211.986 246.375 211.986C246.242 211.854 246.242 211.854 246.11 211.854ZM338.6 211.324C338.468 211.06 338.468 210.795 338.732 210.663C338.865 210.53 339.262 210.53 339.394 210.795C339.526 210.927 339.526 211.324 339.262 211.457C339.129 211.457 339.129 211.589 338.997 211.589C338.865 211.457 338.732 211.457 338.6 211.324ZM179.158 210.53C179.025 210.266 179.025 210.001 179.29 209.869C179.422 209.737 179.819 209.737 179.951 210.001C180.084 210.133 180.084 210.53 179.819 210.663C179.687 210.663 179.687 210.795 179.555 210.795C179.422 210.795 179.29 210.663 179.158 210.53ZM242.273 209.472C242.008 209.34 242.008 209.075 242.141 208.81C242.273 208.546 242.538 208.546 242.802 208.678C243.067 208.81 243.067 209.075 242.935 209.34C242.802 209.472 242.67 209.604 242.538 209.604C242.405 209.604 242.405 209.604 242.273 209.472ZM342.173 208.546C342.04 208.413 342.04 208.016 342.173 207.884C342.437 207.752 342.702 207.752 342.834 207.884C342.966 208.016 342.966 208.413 342.834 208.546C342.702 208.546 342.569 208.678 342.569 208.678C342.437 208.678 342.305 208.678 342.173 208.546ZM182.862 208.016C182.73 207.752 182.73 207.487 182.995 207.355C183.259 207.222 183.524 207.222 183.656 207.487C183.789 207.752 183.789 208.016 183.524 208.149C183.392 208.149 183.392 208.281 183.259 208.281C183.127 208.149 182.862 208.016 182.862 208.016ZM238.303 207.355C238.039 207.222 238.039 206.958 238.171 206.693C238.303 206.428 238.568 206.428 238.833 206.428C239.097 206.561 239.097 206.825 238.965 207.09C238.833 207.222 238.7 207.355 238.568 207.355C238.568 207.487 238.436 207.487 238.303 207.355ZM345.613 205.634C345.48 205.502 345.48 205.105 345.613 204.973C345.745 204.84 346.142 204.84 346.274 204.973C346.407 205.105 346.407 205.502 346.274 205.634C346.142 205.767 346.142 205.767 346.01 205.767C345.877 205.767 345.745 205.767 345.613 205.634ZM186.7 205.502C186.567 205.237 186.7 204.973 186.832 204.84C187.097 204.708 187.361 204.84 187.494 204.973C187.626 205.237 187.494 205.502 187.361 205.634C187.229 205.634 187.229 205.634 187.097 205.634C186.832 205.767 186.7 205.767 186.7 205.502ZM234.334 205.502C234.069 205.37 234.069 205.105 234.069 204.84C234.202 204.576 234.466 204.576 234.731 204.576C234.995 204.708 234.995 204.973 234.995 205.237C234.995 205.37 234.731 205.502 234.599 205.502C234.466 205.502 234.466 205.502 234.334 205.502ZM230.232 203.782C229.967 203.65 229.835 203.385 229.967 203.253C230.1 202.988 230.364 202.856 230.497 202.988C230.761 203.12 230.894 203.385 230.761 203.517C230.761 203.65 230.497 203.782 230.364 203.782H230.232ZM190.669 203.517C190.537 203.253 190.669 202.988 190.934 202.856C191.198 202.723 191.463 202.856 191.595 203.12C191.728 203.385 191.595 203.65 191.331 203.782H191.198C190.802 203.782 190.669 203.65 190.669 203.517ZM225.998 202.459C225.733 202.326 225.601 202.194 225.733 201.929C225.733 201.665 225.998 201.532 226.263 201.665C226.527 201.665 226.659 201.929 226.527 202.194C226.527 202.326 226.263 202.459 225.998 202.459C226.13 202.459 225.998 202.459 225.998 202.459ZM194.771 201.797C194.639 201.532 194.771 201.268 195.036 201.268C195.3 201.135 195.565 201.268 195.565 201.532C195.697 201.797 195.565 202.062 195.3 202.062H195.168C195.036 202.062 194.771 201.929 194.771 201.797ZM221.631 201.268C221.367 201.268 221.234 201.003 221.234 200.738C221.234 200.474 221.499 200.341 221.764 200.341C222.028 200.341 222.161 200.606 222.161 200.871C222.161 201.135 222.028 201.268 221.631 201.268C221.764 201.268 221.764 201.268 221.631 201.268ZM199.005 200.606C199.005 200.341 199.138 200.077 199.402 200.077C199.667 200.077 199.931 200.209 199.931 200.474C199.931 200.738 199.799 201.003 199.534 201.003C199.534 201.003 199.534 201.003 199.402 201.003C199.27 200.871 199.137 200.738 199.005 200.606ZM217.265 200.606C217 200.606 216.868 200.341 216.868 200.077C216.868 199.812 217.133 199.68 217.397 199.68C217.662 199.68 217.794 199.944 217.794 200.209C217.794 200.341 217.53 200.606 217.265 200.606ZM203.504 199.812C203.504 199.547 203.636 199.415 203.901 199.283C204.166 199.283 204.43 199.415 204.43 199.68C204.43 199.944 204.298 200.209 204.033 200.209C203.769 200.209 203.504 200.077 203.504 199.812ZM212.898 200.077C212.634 200.077 212.502 199.812 212.502 199.547C212.502 199.283 212.766 199.15 213.031 199.15C213.295 199.15 213.428 199.415 213.428 199.68C213.295 199.944 213.163 200.077 212.898 200.077ZM208.003 199.547C208.003 199.283 208.135 199.15 208.4 199.15C208.664 199.15 208.797 199.283 208.797 199.547C208.797 199.812 208.532 199.944 208.4 199.944C208.135 199.944 208.003 199.812 208.003 199.547Z" fill="white"/>
<path opacity="0.8" d="M119.483 230.379H119.35C119.35 230.379 119.218 230.379 119.218 230.247L119.086 230.115V229.982C119.086 229.85 119.086 229.718 119.218 229.718L119.35 229.585C119.482 229.585 119.615 229.585 119.747 229.585C119.747 229.585 119.879 229.585 119.879 229.718C120.012 229.85 120.012 229.85 120.012 229.982V230.115C120.012 230.115 120.012 230.247 119.879 230.247L119.747 230.379C119.615 230.379 119.483 230.379 119.483 230.379Z" fill="white"/>
</g>
<path d="M191.992 94.8776L188.949 91.5695C183.524 96.7302 176.114 99.906 168.308 99.906C155.208 99.906 144.887 91.0402 142.506 78.9985L137.875 80.1895L133.64 81.2481C134.831 87.5997 137.742 93.2897 142.109 97.9211C155.473 112.345 179.29 112.345 194.903 97.9211L191.992 94.8776Z" fill="white"/>
<path d="M198.608 45.1232L194.506 48.9606L191.728 51.6071C196.491 56.7678 199.138 63.7811 198.608 71.5883C198.079 79.3956 194.374 86.4088 188.949 91.5695L191.331 94.2161L194.771 97.9212C202.313 90.9079 206.812 81.3804 207.606 71.5883C208.4 61.6639 205.092 52.1364 198.608 45.1232Z" fill="#25DD7E"/>
<path d="M198.608 45.1231C185.112 30.6996 161.427 30.6996 145.814 45.1231C135.758 54.5183 131.126 68.2801 133.64 81.1157L138.933 79.7925L142.506 78.8662C142.109 76.4843 141.844 74.1025 142.109 71.5883C143.167 55.9738 156.796 43.2706 172.409 43.2706C180.216 43.2706 187.097 46.4464 191.86 51.6071L195.433 48.2989L198.608 45.1231Z" fill="#25DD7E"/>
<path d="M236.583 94.8776L240.156 91.5695C235.392 86.4088 232.746 79.3955 233.275 71.5883C234.202 58.488 243.861 47.505 256.166 44.3291L255.24 39.8301L254.446 35.728C247.963 37.4482 242.008 40.7563 236.98 45.3878C221.631 59.5466 219.911 83.3653 233.408 97.9211L236.583 94.8776Z" fill="white"/>
<path d="M286.07 97.9212L282.63 94.0837L280.248 91.4372C274.823 96.5979 267.413 99.7737 259.606 99.7737C251.8 99.7737 244.919 96.5979 240.156 91.4372L237.377 94.0837L233.408 97.7888C239.891 104.802 249.153 108.772 258.945 108.772C268.869 108.772 278.66 104.802 286.07 97.9212Z" fill="#25DD7E"/>
<path d="M286.07 97.9211C301.551 83.4976 303.271 59.6789 289.907 45.1231C281.174 35.728 267.678 32.0228 254.578 35.4633L255.637 40.624L256.299 44.1968C258.68 43.5352 261.194 43.2705 263.708 43.2705C279.322 43.2705 291.098 55.9738 289.907 71.5883C289.378 79.3955 285.673 86.4088 280.248 91.5695L283.291 94.8776L286.07 97.9211Z" fill="#25DD7E"/>
<path opacity="0.3" d="M348.656 37.5805C349.45 37.5805 350.112 37.8452 350.641 38.3745C351.17 38.9038 351.435 39.5654 351.302 40.3594L349.715 63.1194C349.582 64.7073 348.127 66.1629 346.539 66.1629H323.78C322.986 66.1629 322.325 65.8983 321.796 65.369C321.266 64.8396 321.002 64.178 321.134 63.3841L322.722 40.624C322.854 39.0361 324.31 37.5805 325.897 37.5805H348.656ZM348.656 36.3896H325.897C323.648 36.3896 321.663 38.2421 321.531 40.4917L319.943 63.2517C319.811 65.5013 321.531 67.3538 323.78 67.3538H346.539C348.788 67.3538 350.773 65.5013 350.905 63.2517L352.493 40.4917C352.626 38.2421 350.905 36.3896 348.656 36.3896Z" fill="#191919"/>
<path opacity="0.3" d="M345.745 76.749C346.539 76.749 347.201 77.0137 347.73 77.543C348.259 78.0723 348.524 78.7339 348.391 79.5279L346.804 102.288C346.671 103.876 345.216 105.331 343.628 105.331H320.869C320.075 105.331 319.414 105.067 318.885 104.537C318.355 104.008 318.091 103.347 318.223 102.553L319.811 79.7925C319.943 78.2046 321.399 76.749 322.986 76.749H345.745ZM345.745 75.6904H322.986C320.737 75.6904 318.752 77.543 318.62 79.7925L317.032 102.553C316.9 104.802 318.62 106.655 320.869 106.655H343.628C345.877 106.655 347.862 104.802 347.994 102.553L349.582 79.7925C349.715 77.4107 347.994 75.6904 345.745 75.6904Z" fill="#191919"/>
<path d="M312.401 203.12C313.063 203.12 313.592 203.385 313.989 203.782C314.386 204.179 314.65 204.84 314.518 205.502C314.386 206.958 313.195 208.016 311.74 208.016C311.078 208.016 310.549 207.752 310.152 207.355C309.755 206.958 309.49 206.296 309.622 205.634C309.755 204.179 310.946 203.12 312.401 203.12ZM312.401 201.929C310.416 201.929 308.696 203.517 308.564 205.502C308.432 207.487 309.887 209.075 311.872 209.075C313.857 209.075 315.577 207.487 315.709 205.502C315.841 203.517 314.386 201.929 312.401 201.929Z" fill="#252E3D"/>
<path d="M312.666 201.929H312.136V200.738H312.798L312.666 201.929Z" fill="#407BFF"/>
<path d="M312.93 198.356H312.401L312.533 195.975H313.063L312.93 198.356ZM313.327 193.593H312.798L312.93 191.211H313.46L313.327 193.593ZM313.592 188.829H313.063L313.195 186.447H313.724L313.592 188.829ZM313.989 184.065H313.46L313.592 181.683H314.121L313.989 184.065ZM314.254 179.302H313.724L313.857 176.92H314.386L314.254 179.302ZM314.65 174.538H314.121L314.254 172.156H314.783L314.65 174.538ZM315.047 169.774H314.518L314.65 167.392H315.18L315.047 169.774ZM315.312 164.878H314.783L314.915 162.496H315.444L315.312 164.878ZM315.709 160.114H315.18L315.312 157.732H315.841L315.709 160.114ZM315.974 155.351H315.444L315.577 152.969H316.106L315.974 155.351ZM316.371 150.587H315.841L315.974 148.205H316.503L316.371 150.587Z" fill="#252E3D"/>
<path d="M316.173 144.611L316.088 145.799L316.616 145.836L316.701 144.648L316.173 144.611Z" fill="#407BFF"/>
<path d="M341.114 145.294H131.656C130.465 145.294 129.406 144.765 128.612 143.971C127.818 143.177 127.422 141.986 127.554 140.795L128.612 126.371C128.745 123.989 130.862 122.004 133.243 122.004H342.702C343.893 122.004 344.951 122.534 345.745 123.328C346.539 124.122 346.936 125.313 346.804 126.504L345.745 140.927C345.613 143.309 343.628 145.294 341.114 145.294ZM133.243 123.328C131.523 123.328 129.936 124.783 129.803 126.504L128.745 140.927C128.745 141.721 129.009 142.515 129.539 143.177C130.068 143.706 130.862 144.103 131.656 144.103H341.114C342.834 144.103 344.422 142.647 344.554 140.927L345.613 126.504C345.613 125.71 345.348 124.916 344.819 124.254C344.29 123.725 343.496 123.328 342.702 123.328H133.243Z" fill="#191919"/>
<path opacity="0.8" fill-rule="evenodd" clip-rule="evenodd" d="M336.615 131.267H138.007C136.948 131.267 136.154 130.341 136.154 129.282C136.287 128.224 137.213 127.297 138.272 127.297H336.88C337.938 127.297 338.732 128.224 338.732 129.282C338.732 130.473 337.674 131.267 336.615 131.267Z" fill="white"/>
<path opacity="0.8" fill-rule="evenodd" clip-rule="evenodd" d="M303.536 139.604H137.478C136.419 139.604 135.625 138.677 135.625 137.619C135.758 136.56 136.684 135.634 137.742 135.634H303.8C304.859 135.634 305.653 136.56 305.653 137.619C305.521 138.677 304.594 139.604 303.536 139.604Z" fill="white"/>
</svg>
