<svg width="24" height="24" viewBox="0 0 24 24" fill="none" xmlns="http://www.w3.org/2000/svg">
<path d="M12 0C18.6277 0 24 5.373 24 12C24 18.6271 18.6277 24 12 24C5.37217 24 0 18.627 0 12C0 5.37308 5.37226 0 12 0Z" fill="white"/>
<path d="M6.76191 16.488H9.00893V8.99844H6.76191V16.488ZM15.5159 8.73902C14.4254 8.73902 13.4497 9.13726 12.7575 10.0163V8.97381H10.5022V16.488H12.7575V12.4245C12.7575 11.5658 13.5442 10.728 14.5297 10.728C15.5152 10.728 15.7582 11.5658 15.7582 12.4035V16.4873H18.0053V12.2363C18.0052 9.28349 16.6072 8.73902 15.5159 8.73902ZM7.87491 8.24999C8.49592 8.24999 8.99995 7.74596 8.99995 7.12495C8.99995 6.50394 8.49592 6 7.87491 6C7.2539 6 6.74988 6.50402 6.74988 7.12503C6.74988 7.74604 7.2539 8.24999 7.87491 8.24999Z" fill="#191919"/>
</svg>
