<svg width="96" height="23" fill="none" xmlns="http://www.w3.org/2000/svg"><path d="M24.47 1.618v19.147h14.412M44.03 1.823v19.353M64.412 2.03L48.97 20.97m6.589-11.323l-6.383-7.618m45.501.206L88.5 11.5v9.676M18.088 4.294c-7.206-6.176-14 0-14 0-1.853 2.059-4.941 8.359 0 13.794 4.941 5.436 11.392 2.677 14 .618" stroke="#191919" stroke-width="1.882" stroke-linecap="round"/><path d="M81.912 2.03c-1.853-.481-5.847-.454-7 3.5-1.153 3.952-2.402 9.196-2.883 11.323-.48 1.853-2.511 5.353-6.794 4.53" stroke="#25DD7E" stroke-width="1.882" stroke-linecap="round"/><path d="M65.03 21.176L57 11.5m24.912-9.47l5.353 7.617" stroke="#191919" stroke-width="1.882" stroke-linecap="round"/></svg>