<svg width="405" height="628" fill="none" xmlns="http://www.w3.org/2000/svg"><g opacity=".6" stroke="#25DD7E" stroke-linecap="round" clip-path="url(#clip0)"><path d="M641.175-234C607.094-153.238 481.333 18.406 250.932 58.886-37.07 109.486 68.418 571.05 512.464 377.172"/><path d="M573.751-51.724c-34.08 80.762-159.842 252.406-390.243 292.886-288.001 50.6-182.514 512.164 261.533 318.286"/><path d="M634.002-86.4C599.921-5.636 474.16 166.008 243.759 206.488c-288.002 50.6-182.514 512.164 261.533 318.286"/><path d="M682.373-162.415C648.293-81.653 522.531 89.991 292.13 130.471 4.129 181.072 109.616 642.635 553.663 448.757"/></g><defs><clipPath id="clip0"><path fill="#fff" d="M0 0h405v628H0z"/></clipPath></defs></svg>