<svg width="166" height="121" fill="none" xmlns="http://www.w3.org/2000/svg"><path d="M151.047 120.106H19.209c-4.036 0-7.104-3.283-6.78-7.319l6.995-97.298c.269-4.036 3.82-7.319 7.803-7.319H159.01c4.036 0 7.103 3.283 6.78 7.32l-6.995 97.297c-.216 4.036-3.713 7.319-7.749 7.319z" fill="#25DD7E"/><path d="M149.541 120.106H17.756c-4.036 0-7.103-3.283-6.78-7.319l6.942-97.298c.269-4.036 3.82-7.318 7.856-7.318h131.784c4.036 0 7.104 3.282 6.781 7.319l-6.996 97.297c-.215 4.036-3.767 7.319-7.802 7.319z" fill="#25DD7E"/><path d="M.52 102.617h0v-.008L7.805 5.742V5.74C8.012 2.904 10.675.5 13.795.5h138.528c3.043 0 5.334 2.366 5.079 5.159v.008l-7.342 96.867v.002c-.208 2.889-2.869 5.24-5.933 5.24H5.599c-3.043 0-5.334-2.366-5.08-5.159z" fill="#fff" stroke="#252E3D"/><path opacity=".2" d="M.52 102.617h0v-.008L7.805 5.742V5.74C8.012 2.904 10.675.5 13.795.5h138.528c3.043 0 5.334 2.366 5.079 5.159v.008l-7.342 96.867v.002c-.208 2.889-2.869 5.24-5.933 5.24H5.599c-3.043 0-5.334-2.366-5.08-5.159z" fill="#fff" stroke="#252E3D"/><path d="M96.412 62.885l-8.438-4.218a2.324 2.324 0 01-1.29-2.09v-2.986c.202-.248.415-.53.635-.84a20.216 20.216 0 002.609-5.123 3.505 3.505 0 002.055-3.195V40.9c0-.85-.318-1.675-.883-2.319v-4.698c.05-.486.244-3.378-1.848-5.764C87.438 26.049 84.494 25 80.5 25c-3.993 0-6.938 1.05-8.752 3.118-2.092 2.386-1.898 5.279-1.848 5.765v4.698a3.522 3.522 0 00-.883 2.319v3.533c0 1.075.488 2.078 1.322 2.747.81 3.203 2.502 5.618 3.094 6.392v2.923c0 .855-.466 1.64-1.216 2.05l-7.88 4.298a7.965 7.965 0 00-4.154 6.997v2.86c0 4.192 13.29 5.3 20.317 5.3 7.027 0 20.317-1.108 20.317-5.3v-2.688a7.926 7.926 0 00-4.405-7.127zM99.05 72.7c0 1.199-6.547 3.533-18.55 3.533S61.95 73.9 61.95 72.7v-2.86a6.198 6.198 0 013.232-5.445l7.88-4.298a4.102 4.102 0 002.138-3.602v-3.55l-.206-.245c-.021-.026-2.186-2.645-3.012-6.241l-.08-.35-.302-.194a1.763 1.763 0 01-.817-1.482V40.9c0-.496.21-.957.592-1.303l.292-.262v-5.502l-.008-.115c-.003-.024-.303-2.473 1.417-4.436 1.464-1.67 3.962-2.515 7.424-2.515 3.45 0 5.942.84 7.408 2.498 1.72 1.944 1.435 4.431 1.433 4.453l-.008 5.617.292.263c.381.345.592.806.592 1.302v3.533c0 .772-.506 1.446-1.256 1.678l-.44.135-.142.437a18.49 18.49 0 01-2.503 5.047 11.66 11.66 0 01-.74.953l-.22.25v3.644a4.08 4.08 0 002.267 3.669l8.439 4.219a6.168 6.168 0 013.428 5.547V72.7z" fill="#A4A4A4"/><path d="M95.5 39C88.044 39 82 45.044 82 52.5S88.044 66 95.5 66 109 59.956 109 52.5 102.956 39 95.5 39zm-2.477 20.435L87.08 53.49l1.982-1.982 3.962 3.963 8.916-8.916 1.982 1.981-10.898 10.898z" fill="#25DD7E"/></svg>