<svg width="166" height="121" fill="none" xmlns="http://www.w3.org/2000/svg"><path d="M151.047 120.106H19.209c-4.036 0-7.104-3.283-6.78-7.319l6.995-97.298c.269-4.036 3.82-7.319 7.803-7.319H159.01c4.036 0 7.103 3.283 6.78 7.32l-6.995 97.297c-.216 4.036-3.713 7.319-7.749 7.319z" fill="#25DD7E"/><path d="M149.541 120.106H17.756c-4.036 0-7.103-3.283-6.78-7.319l6.942-97.298c.269-4.036 3.82-7.318 7.856-7.318h131.784c4.036 0 7.104 3.282 6.781 7.319l-6.996 97.297c-.215 4.036-3.767 7.319-7.802 7.319z" fill="#25DD7E"/><path d="M.52 102.617h0v-.008L7.805 5.742V5.74C8.012 2.904 10.675.5 13.795.5h138.528c3.043 0 5.334 2.366 5.079 5.159v.008l-7.342 96.867v.002c-.208 2.889-2.869 5.24-5.933 5.24H5.599c-3.043 0-5.334-2.366-5.08-5.159z" fill="#fff" stroke="#252E3D"/><path opacity=".2" d="M.52 102.617h0v-.008L7.805 5.742V5.74C8.012 2.904 10.675.5 13.795.5h138.528c3.043 0 5.334 2.366 5.079 5.159v.008l-7.342 96.867v.002c-.208 2.889-2.869 5.24-5.933 5.24H5.599c-3.043 0-5.334-2.366-5.08-5.159z" fill="#fff" stroke="#252E3D"/><path d="M87.802 17.5h50.543a4.5 4.5 0 014.466 5.051l-8.147 66a4.5 4.5 0 01-4.466 3.949H79.655a4.5 4.5 0 01-4.466-5.051l8.147-66a4.5 4.5 0 014.466-3.949z" fill="#fff" stroke="#E1E1E1"/><path d="M89 30h45l-1 4H88l1-4zm-1 11h45l-1 4H87l1-4zm-1 11h45l-1 4H86l1-4z" fill="#EFEFEF"/><path d="M117.239 81H128l-.239 4H117l.239-4z" fill="silver"/><path d="M86 62h44l-1 14H84l2-14z" fill="#EFEFEF"/><path d="M15.448 34.064c.064 0 .096.035.096.104v5.696c0 .053-.01.09-.032.112-.021.016-.059.024-.112.024h-.504c-.048 0-.08-.008-.096-.024s-.024-.045-.024-.088v-5.712c0-.075.032-.112.096-.112h.576zm8.631 1.696c.032 0 .056.013.072.04a.07.07 0 01.008.072l-1.224 4.024c-.021.07-.072.104-.152.104H22.4c-.09 0-.147-.035-.168-.104l-.952-2.992c-.016-.048-.035-.072-.056-.072-.01 0-.024.024-.04.072l-.904 2.992c-.021.07-.072.104-.152.104h-.408c-.09 0-.147-.035-.168-.104l-1.256-4.016a.088.088 0 01-.008-.04c0-.053.032-.08.096-.08h.472c.059 0 .101.03.128.088l.952 3.112c.016.053.035.08.056.08.016 0 .037-.03.064-.088L21 35.84c.016-.053.053-.08.112-.08h.376c.064 0 .104.03.12.088l.984 3.112c.016.053.035.08.056.08.021 0 .04-.03.056-.088l.92-3.104a.139.139 0 01.136-.088h.32zm3.407 3.728c-.41.395-.885.592-1.424.592-.416 0-.744-.104-.984-.312-.234-.213-.352-.496-.352-.848 0-.427.179-.763.536-1.008.363-.245.886-.39 1.568-.432l.624-.048c.09-.01.136-.05.136-.12v-.216c0-.288-.09-.515-.272-.68-.176-.17-.416-.256-.72-.256-.47 0-.853.213-1.152.64a.174.174 0 01-.048.056c-.016.005-.037.003-.064-.008l-.432-.144c-.026-.01-.04-.03-.04-.056 0-.016.008-.04.024-.072.16-.283.387-.501.68-.656.299-.16.65-.24 1.056-.24.523 0 .923.123 1.2.368.278.24.416.573.416 1v2.832c0 .048-.008.08-.024.096s-.045.024-.088.024h-.4c-.064 0-.101-.043-.112-.128l-.016-.368c-.005-.037-.018-.056-.04-.056-.021 0-.045.013-.072.04zm.104-1.52c0-.085-.04-.128-.12-.128l-.52.048c-.496.032-.88.128-1.152.288-.266.16-.4.381-.4.664 0 .23.08.41.24.544.166.133.384.2.656.2.166 0 .328-.03.488-.088.16-.059.302-.139.424-.24.123-.096.216-.197.28-.304a.612.612 0 00.104-.32v-.664zM29.517 40c-.075 0-.112-.035-.112-.104v-4.032c0-.07.03-.104.088-.104h.48c.059 0 .088.03.088.088v.464c0 .059.024.067.072.024a4.48 4.48 0 01.76-.504 1.64 1.64 0 01.712-.152c.405 0 .72.11.944.328.23.219.344.512.344.88v2.984c0 .085-.04.128-.12.128h-.448c-.07 0-.104-.035-.104-.104V37.04c0-.267-.07-.472-.208-.616-.133-.144-.341-.216-.624-.216-.224 0-.432.05-.624.152a3.773 3.773 0 00-.688.496v3.024c0 .043-.01.075-.032.096-.016.016-.045.024-.088.024h-.44zm5.68-3.744c-.043 0-.064.024-.064.072v2.536c0 .24.04.405.12.496.08.09.21.136.392.136h.552c.059 0 .088.03.088.088l-.008.272c0 .053-.032.088-.096.104-.139.027-.39.04-.752.04-.336 0-.581-.077-.736-.232-.155-.16-.232-.41-.232-.752v-2.672c0-.059-.027-.088-.08-.088h-.64c-.059 0-.088-.027-.088-.08v-.336c0-.053.027-.08.08-.08h.68c.037 0 .056-.021.056-.064l.088-1.272c0-.07.03-.104.088-.104h.4c.064 0 .096.037.096.112v1.264c0 .043.021.064.064.064h1.008c.059 0 .088.024.088.072v.344c0 .053-.03.08-.088.08h-1.016zm4.812 0c-.042 0-.064.024-.064.072v2.536c0 .24.04.405.12.496.08.09.211.136.392.136h.552c.06 0 .088.03.088.088l-.008.272c0 .053-.032.088-.096.104-.138.027-.389.04-.752.04-.336 0-.58-.077-.736-.232-.154-.16-.232-.41-.232-.752v-2.672c0-.059-.026-.088-.08-.088h-.64c-.058 0-.088-.027-.088-.08v-.336c0-.053.027-.08.08-.08h.68c.038 0 .056-.021.056-.064l.088-1.272c0-.07.03-.104.088-.104h.4c.064 0 .096.037.096.112v1.264c0 .043.022.064.064.064h1.008c.06 0 .088.024.088.072v.344c0 .053-.029.08-.088.08H40.01zm3.649 3.824c-.4 0-.755-.09-1.064-.272a1.927 1.927 0 01-.712-.776 2.489 2.489 0 01-.248-1.128c0-.432.085-.816.256-1.152a1.97 1.97 0 01.72-.784 1.96 1.96 0 011.056-.288c.394 0 .744.096 1.048.288.309.187.546.448.712.784.17.336.256.717.256 1.144 0 .421-.086.797-.256 1.128-.171.33-.411.59-.72.776a1.96 1.96 0 01-1.048.28zm.016-.504c.416 0 .738-.15.968-.448.234-.304.352-.72.352-1.248 0-.523-.12-.936-.36-1.24-.235-.31-.558-.464-.968-.464-.416 0-.744.155-.984.464-.24.304-.36.717-.36 1.24s.12.936.36 1.24c.24.304.57.456.992.456zm7.26-2.88a1.158 1.158 0 00-.465-.392 1.42 1.42 0 00-.672-.152c-.293 0-.533.064-.72.192-.186.123-.28.285-.28.488 0 .123.046.235.136.336.096.096.267.181.512.256l1.016.304c.352.096.614.24.784.432a.96.96 0 01.256.672c0 .245-.074.464-.224.656a1.482 1.482 0 01-.616.44 2.442 2.442 0 01-.888.152c-.41 0-.776-.08-1.096-.24-.32-.165-.546-.379-.68-.64a.137.137 0 01-.024-.064c0-.027.014-.048.04-.064l.312-.176c.054-.032.094-.03.12.008.288.459.734.688 1.336.688.315-.005.574-.07.776-.192.208-.128.312-.293.312-.496a.47.47 0 00-.184-.376c-.122-.101-.322-.192-.6-.272l-.824-.232c-.389-.101-.669-.243-.84-.424a.95.95 0 01-.248-.664c0-.245.067-.464.2-.656.14-.192.331-.339.576-.44.251-.107.536-.16.856-.16.352 0 .667.067.944.2.283.133.5.315.648.544.038.053.035.09-.008.112l-.336.184a.122.122 0 01-.048.016c-.02 0-.045-.013-.072-.04zm2.101-.936c.075 0 .112.04.112.12v.336c0 .048.014.072.04.072.016 0 .038-.013.064-.04a3.8 3.8 0 01.296-.272c.086-.07.21-.136.376-.2s.36-.096.584-.096c.336 0 .635.08.896.24.267.16.475.4.624.72.155.32.232.712.232 1.176 0 .47-.077.875-.232 1.216a1.74 1.74 0 01-.64.784c-.277.176-.6.264-.968.264-.442 0-.821-.133-1.136-.4-.037-.037-.066-.056-.088-.056-.026 0-.04.035-.04.104v1.488c0 .07-.03.104-.088.104h-.496c-.058 0-.088-.035-.088-.104v-5.328c0-.043.008-.075.024-.096.022-.021.056-.032.104-.032h.424zm.12 3.304c.17.176.341.31.512.4.176.085.368.128.576.128.4 0 .72-.152.96-.456.245-.304.368-.741.368-1.312 0-.555-.12-.968-.36-1.24a1.17 1.17 0 00-.928-.416c-.213 0-.405.048-.576.144a1.15 1.15 0 00-.408.352.763.763 0 00-.144.424v1.976zm4.55-.92c0 .256.061.493.184.712.128.219.298.392.512.52.213.128.448.192.704.192.533 0 .949-.221 1.248-.664.021-.021.04-.032.056-.032.016-.005.034-.003.056.008l.336.168c.042.027.048.064.016.112-.208.32-.456.555-.744.704-.288.144-.632.216-1.032.216-.39 0-.739-.09-1.048-.272a1.921 1.921 0 01-.728-.76 2.425 2.425 0 01-.256-1.128c0-.453.088-.848.264-1.184.176-.341.416-.603.72-.784.309-.181.656-.272 1.04-.272s.72.085 1.008.256c.293.17.52.421.68.752.16.325.24.712.24 1.16v.032a.219.219 0 01-.024.112c-.016.021-.048.032-.096.032h-3.064c-.048 0-.072.04-.072.12zm2.448-.56c.058 0 .096-.005.112-.016.016-.016.024-.048.024-.096 0-.235-.051-.45-.152-.648a1.106 1.106 0 00-.432-.48 1.167 1.167 0 00-.656-.184c-.272 0-.51.07-.712.208-.203.133-.358.31-.464.528a1.446 1.446 0 00-.152.688h2.432zm4.216 1.904c-.41.395-.885.592-1.424.592-.416 0-.744-.104-.984-.312-.235-.213-.352-.496-.352-.848 0-.427.179-.763.536-1.008.363-.245.885-.39 1.568-.432l.624-.048c.09-.01.136-.05.136-.12v-.216c0-.288-.09-.515-.272-.68-.176-.17-.416-.256-.72-.256-.47 0-.853.213-1.152.64a.174.174 0 01-.048.056c-.016.005-.037.003-.064-.008l-.432-.144c-.027-.01-.04-.03-.04-.056 0-.016.008-.04.024-.072.16-.283.387-.501.68-.656.299-.16.65-.24 1.056-.24.523 0 .923.123 1.2.368.277.24.416.573.416 1v2.832c0 .048-.008.08-.024.096s-.045.024-.088.024h-.4c-.064 0-.101-.043-.112-.128l-.016-.368c-.005-.037-.019-.056-.04-.056s-.045.013-.072.04zm.104-1.52c0-.085-.04-.128-.12-.128l-.52.048c-.496.032-.88.128-1.152.288-.267.16-.4.381-.4.664 0 .23.08.41.24.544.165.133.384.2.656.2a1.454 1.454 0 00.912-.328c.123-.096.216-.197.28-.304a.612.612 0 00.104-.32v-.664zm5.479 1.904c.01.01.016.03.016.056 0 .048-.03.072-.088.072h-.56a.178.178 0 01-.08-.016.26.26 0 01-.064-.08l-1.208-2.072c-.01-.027-.024-.04-.04-.04-.016-.005-.035.003-.056.024l-.848.856c-.037.037-.056.09-.056.16v1.032c0 .053-.01.09-.032.112-.022.016-.059.024-.112.024h-.408c-.048 0-.08-.008-.096-.024s-.024-.045-.024-.088v-5.712c0-.075.03-.112.088-.112h.488c.064 0 .096.035.096.104v3.712c0 .053.008.08.024.08s.034-.016.056-.048l1.976-2.056c.058-.064.114-.096.168-.096h.488c.064 0 .096.019.096.056 0 .016-.019.048-.056.096L68.456 37.2c-.022.032-.032.056-.032.072 0 .016.008.037.024.064l1.504 2.536zm-54.216 7.384c-.043 0-.064.024-.064.072v2.536c0 .24.04.405.12.496.08.09.21.136.392.136h.552c.059 0 .088.03.088.088l-.008.272c0 .053-.032.088-.096.104-.139.027-.39.04-.752.04-.336 0-.581-.077-.736-.232-.155-.16-.232-.41-.232-.752v-2.672c0-.059-.027-.088-.08-.088h-.64c-.059 0-.088-.027-.088-.08v-.336c0-.053.027-.08.08-.08h.68c.037 0 .056-.021.056-.064l.088-1.272c0-.07.03-.104.088-.104h.4c.064 0 .096.037.096.112v1.264c0 .043.021.064.064.064h1.008c.059 0 .088.024.088.072v.344c0 .053-.03.08-.088.08h-1.016zm3.648 3.824c-.4 0-.755-.09-1.064-.272a1.927 1.927 0 01-.712-.776 2.489 2.489 0 01-.248-1.128c0-.432.085-.816.256-1.152a1.97 1.97 0 01.72-.784 1.96 1.96 0 011.056-.288c.395 0 .744.096 1.048.288.31.187.547.448.712.784.17.336.256.717.256 1.144 0 .421-.085.797-.256 1.128a1.9 1.9 0 01-.72.776c-.304.187-.653.28-1.048.28zm.016-.504c.416 0 .739-.15.968-.448.235-.304.352-.72.352-1.248 0-.523-.12-.936-.36-1.24-.235-.31-.557-.464-.968-.464-.416 0-.744.155-.984.464-.24.304-.36.717-.36 1.24s.12.936.36 1.24c.24.304.57.456.992.456zm7.26-2.88a1.158 1.158 0 00-.464-.392 1.42 1.42 0 00-.672-.152c-.293 0-.533.064-.72.192-.187.123-.28.285-.28.488a.49.49 0 00.136.336c.096.096.267.181.512.256l1.016.304c.352.096.613.24.784.432.17.187.256.41.256.672 0 .245-.075.464-.224.656-.15.187-.355.333-.616.44a2.442 2.442 0 01-.888.152c-.41 0-.776-.08-1.096-.24-.32-.165-.547-.379-.68-.64a.137.137 0 01-.024-.064c0-.027.013-.048.04-.064l.312-.176c.053-.032.093-.03.12.008.288.459.733.688 1.336.688.315-.005.573-.07.776-.192.208-.128.312-.293.312-.496a.47.47 0 00-.184-.376c-.123-.101-.323-.192-.6-.272l-.824-.232c-.39-.101-.67-.243-.84-.424a.95.95 0 01-.248-.664c0-.245.067-.464.2-.656a1.3 1.3 0 01.576-.44c.25-.107.536-.16.856-.16.352 0 .667.067.944.2.283.133.499.315.648.544.037.053.035.09-.008.112l-.336.184a.122.122 0 01-.048.016c-.021 0-.045-.013-.072-.04zm3.326 3.384c-.4 0-.755-.09-1.064-.272a1.926 1.926 0 01-.712-.776 2.488 2.488 0 01-.248-1.128c0-.432.085-.816.256-1.152a1.97 1.97 0 01.72-.784 1.96 1.96 0 011.056-.288c.394 0 .744.096 1.048.288.31.187.546.448.712.784.17.336.256.717.256 1.144 0 .421-.086.797-.256 1.128a1.9 1.9 0 01-.72.776 1.96 1.96 0 01-1.048.28zm.016-.504c.416 0 .738-.15.968-.448.234-.304.352-.72.352-1.248 0-.523-.12-.936-.36-1.24-.235-.31-.558-.464-.968-.464-.416 0-.744.155-.984.464-.24.304-.36.717-.36 1.24s.12.936.36 1.24c.24.304.57.456.992.456zM33.11 51c-.075 0-.112-.035-.112-.104v-4.032c0-.07.03-.104.088-.104h.48c.053 0 .08.03.08.088v.464c0 .064.026.072.08.024a4.19 4.19 0 01.736-.504 1.5 1.5 0 01.68-.152c.298 0 .544.067.736.2.197.133.33.301.4.504.01.016.021.024.032.024.016 0 .042-.013.08-.04.277-.235.525-.408.744-.52.224-.112.459-.168.704-.168.384 0 .683.11.896.328.218.219.328.515.328.888v2.976c0 .085-.04.128-.12.128h-.448c-.07 0-.104-.035-.104-.104V48.04c0-.267-.064-.472-.192-.616-.128-.144-.32-.216-.576-.216a1.19 1.19 0 00-.6.16c-.187.101-.368.23-.544.384a.465.465 0 00-.088.112.267.267 0 00-.024.12v2.888c0 .085-.04.128-.12.128h-.448c-.07 0-.104-.035-.104-.104V48.04c0-.555-.256-.832-.768-.832-.213 0-.41.05-.592.152a3.96 3.96 0 00-.664.496v3.024c0 .043-.01.075-.032.096-.016.016-.046.024-.088.024h-.44zm7.586-1.856c0 .256.061.493.184.712.128.219.298.392.512.52.213.128.448.192.704.192.533 0 .95-.221 1.248-.664.021-.021.04-.032.056-.032.016-.005.034-.003.056.008l.336.168c.043.027.048.064.016.112-.208.32-.456.555-.744.704-.288.144-.632.216-1.032.216-.39 0-.739-.09-1.048-.272a1.921 1.921 0 01-.728-.76A2.424 2.424 0 0140 48.92c0-.453.088-.848.264-1.184.176-.341.416-.603.72-.784.31-.181.656-.272 1.04-.272s.72.085 1.008.256c.293.17.52.421.68.752.16.325.24.712.24 1.16v.032a.219.219 0 01-.024.112c-.016.021-.048.032-.096.032h-3.064c-.048 0-.072.04-.072.12zm2.448-.56c.058 0 .096-.005.112-.016.016-.016.024-.048.024-.096 0-.235-.05-.45-.152-.648a1.106 1.106 0 00-.432-.48 1.167 1.167 0 00-.656-.184c-.272 0-.51.07-.712.208-.203.133-.358.31-.464.528a1.445 1.445 0 00-.152.688h2.432zm3.528 2.496c-.4 0-.754-.09-1.064-.272a1.926 1.926 0 01-.712-.776 2.488 2.488 0 01-.248-1.128c0-.432.086-.816.256-1.152a1.97 1.97 0 01.72-.784 1.96 1.96 0 011.056-.288c.395 0 .744.096 1.048.288.31.187.547.448.712.784.17.336.256.717.256 1.144 0 .421-.085.797-.256 1.128a1.9 1.9 0 01-.72.776c-.304.187-.653.28-1.048.28zm.016-.504c.416 0 .739-.15.968-.448.235-.304.352-.72.352-1.248 0-.523-.12-.936-.36-1.24-.234-.31-.557-.464-.968-.464-.416 0-.744.155-.984.464-.24.304-.36.717-.36 1.24s.12.936.36 1.24c.24.304.57.456.992.456zM49.8 51c-.075 0-.113-.035-.113-.104v-4.032c0-.07.03-.104.088-.104h.48c.059 0 .088.03.088.088v.464c0 .059.024.067.072.024a4.46 4.46 0 01.76-.504c.214-.101.451-.152.712-.152.406 0 .72.11.944.328.23.219.344.512.344.88v2.984c0 .085-.04.128-.12.128h-.448c-.069 0-.104-.035-.104-.104V48.04c0-.267-.069-.472-.208-.616-.133-.144-.341-.216-.624-.216-.224 0-.432.05-.624.152a3.773 3.773 0 00-.688.496v3.024c0 .043-.01.075-.032.096-.016.016-.045.024-.088.024h-.44zm5.007-1.856c0 .256.062.493.184.712.128.219.299.392.512.52.213.128.448.192.704.192.533 0 .95-.221 1.248-.664.021-.021.04-.032.056-.032a.073.073 0 01.056.008l.336.168c.043.027.048.064.016.112-.208.32-.456.555-.744.704-.288.144-.632.216-1.032.216-.39 0-.739-.09-1.048-.272a1.921 1.921 0 01-.728-.76 2.424 2.424 0 01-.256-1.128c0-.453.088-.848.264-1.184.176-.341.416-.603.72-.784.31-.181.656-.272 1.04-.272s.72.085 1.008.256c.293.17.52.421.68.752.16.325.24.712.24 1.16v.032a.219.219 0 01-.024.112c-.016.021-.048.032-.096.032h-3.064c-.048 0-.072.04-.072.12zm2.448-.56c.059 0 .096-.005.112-.016.016-.016.024-.048.024-.096 0-.235-.05-.45-.152-.648a1.106 1.106 0 00-.432-.48 1.167 1.167 0 00-.656-.184c-.272 0-.51.07-.712.208-.203.133-.357.31-.464.528a1.445 1.445 0 00-.152.688h2.432zM17.08 61.488c-.41.395-.885.592-1.424.592-.416 0-.744-.104-.984-.312-.235-.213-.352-.496-.352-.848 0-.427.179-.763.536-1.008.363-.245.885-.39 1.568-.432l.624-.048c.09-.01.136-.05.136-.12v-.216c0-.288-.09-.515-.272-.68-.176-.17-.416-.256-.72-.256-.47 0-.853.213-1.152.64a.174.174 0 01-.048.056c-.016.005-.037.003-.064-.008l-.432-.144c-.027-.01-.04-.03-.04-.056 0-.016.008-.04.024-.072.16-.283.387-.501.68-.656.299-.16.65-.24 1.056-.24.523 0 .923.123 1.2.368.277.24.416.573.416 1v2.832c0 .048-.008.08-.024.096s-.045.024-.088.024h-.4c-.064 0-.101-.043-.112-.128l-.016-.368c-.005-.037-.019-.056-.04-.056s-.045.013-.072.04zm.104-1.52c0-.085-.04-.128-.12-.128l-.52.048c-.496.032-.88.128-1.152.288-.267.16-.4.381-.4.664 0 .23.08.41.24.544.165.133.384.2.656.2a1.454 1.454 0 00.912-.328c.123-.096.216-.197.28-.304a.612.612 0 00.104-.32v-.664zM19.127 62c-.048 0-.083-.008-.104-.024-.016-.021-.024-.056-.024-.104v-5.696c0-.075.032-.112.096-.112h.496c.053 0 .08.037.08.112v1.96c0 .059.013.088.04.088.016 0 .043-.013.08-.04a1.804 1.804 0 011.28-.504c.56 0 .984.203 1.272.608.293.4.44.923.44 1.568 0 .688-.163 1.232-.488 1.632-.32.395-.766.592-1.336.592-.325 0-.595-.064-.808-.192a1.76 1.76 0 01-.496-.44c-.016-.021-.032-.032-.048-.032-.021 0-.035.019-.04.056l-.04.4a.21.21 0 01-.048.104c-.016.016-.048.024-.096.024h-.256zm.544-1.432c0 .187.053.36.16.52.112.155.256.28.432.376.176.09.36.136.552.136.384 0 .69-.144.92-.432.235-.288.352-.72.352-1.296 0-.544-.104-.963-.312-1.256-.208-.299-.51-.448-.904-.448-.24 0-.464.053-.672.16a1.7 1.7 0 00-.528.432v1.808zm5.893 1.512c-.4 0-.755-.09-1.064-.272a1.926 1.926 0 01-.712-.776 2.488 2.488 0 01-.248-1.128c0-.432.085-.816.256-1.152a1.97 1.97 0 01.72-.784 1.96 1.96 0 011.056-.288c.395 0 .744.096 1.048.288.31.187.546.448.712.784.17.336.256.717.256 1.144 0 .421-.085.797-.256 1.128a1.9 1.9 0 01-.72.776c-.304.187-.653.28-1.048.28zm.016-.504c.416 0 .739-.15.968-.448.235-.304.352-.72.352-1.248 0-.523-.12-.936-.36-1.24-.235-.31-.557-.464-.968-.464-.416 0-.744.155-.984.464-.24.304-.36.717-.36 1.24s.12.936.36 1.24c.24.304.57.456.992.456zm4.437-.024c.219 0 .432-.059.64-.176a3.04 3.04 0 00.648-.52v-2.984c0-.075.043-.112.128-.112h.44c.075 0 .112.037.112.112l-.016 4.024c0 .07-.03.104-.088.104h-.464c-.059 0-.088-.03-.088-.088v-.472c0-.064-.024-.072-.072-.024-.288.245-.544.419-.768.52a1.73 1.73 0 01-.688.144c-.373 0-.68-.112-.92-.336-.24-.224-.36-.52-.36-.888V57.88c0-.08.04-.12.12-.12h.448c.07 0 .104.037.104.112v2.808c0 .267.072.48.216.64.15.155.352.232.608.232zm4.313-3.296c-.043 0-.064.024-.064.072v2.536c0 .24.04.405.12.496.08.09.21.136.392.136h.552c.058 0 .088.03.088.088l-.008.272c0 .053-.032.088-.096.104-.139.027-.39.04-.752.04-.336 0-.582-.077-.736-.232-.155-.16-.232-.41-.232-.752v-2.672c0-.059-.027-.088-.08-.088h-.64c-.059 0-.088-.027-.088-.08v-.336c0-.053.026-.08.08-.08h.68c.037 0 .056-.021.056-.064l.088-1.272c0-.07.03-.104.088-.104h.4c.064 0 .096.037.096.112v1.264c0 .043.021.064.064.064h1.008c.058 0 .088.024.088.072v.344c0 .053-.03.08-.088.08H34.33zM38.134 62c-.074 0-.112-.035-.112-.104v-4.032c0-.07.03-.104.088-.104h.48c.054 0 .08.03.08.088v.464c0 .064.027.072.08.024.288-.235.534-.403.736-.504a1.5 1.5 0 01.68-.152c.299 0 .544.067.736.2.198.133.33.301.4.504.01.016.022.024.032.024.016 0 .043-.013.08-.04.278-.235.526-.408.744-.52.224-.112.459-.168.704-.168.384 0 .683.11.896.328.219.219.328.515.328.888v2.976c0 .085-.04.128-.12.128h-.448c-.07 0-.104-.035-.104-.104V59.04c0-.267-.064-.472-.192-.616-.128-.144-.32-.216-.576-.216a1.19 1.19 0 00-.6.16 3.02 3.02 0 00-.544.384.465.465 0 00-.088.112.267.267 0 00-.024.12v2.888c0 .085-.04.128-.12.128h-.448c-.07 0-.104-.035-.104-.104V59.04c0-.555-.256-.832-.768-.832-.213 0-.41.05-.592.152a3.955 3.955 0 00-.664.496v3.024c0 .043-.01.075-.032.096-.016.016-.045.024-.088.024h-.44zm7.37 1.32a3 3 0 01-.384-.016c-.07-.01-.104-.04-.104-.088v-.312c0-.037.014-.064.04-.08a.469.469 0 01.184-.024h.504a.515.515 0 00.352-.144.908.908 0 00.248-.344.953.953 0 00.096-.4.48.48 0 00-.032-.192l-1.528-3.824a.11.11 0 01-.008-.048c0-.059.032-.088.096-.088h.496c.059 0 .102.03.128.088l1.192 3.104c.016.048.038.072.064.072.032 0 .059-.032.08-.096l1.176-3.08c.027-.059.064-.088.112-.088h.376c.032 0 .056.013.072.04a.07.07 0 01.008.072l-1.76 4.504c-.144.363-.322.61-.536.744-.213.133-.504.2-.872.2zm7.49-5.64c.389 0 .72.09.991.272.278.181.499.421.664.72l.016.064c0 .032-.018.05-.056.056l-.44.104-.024.008c-.027 0-.053-.021-.08-.064a2.12 2.12 0 00-.496-.504.92.92 0 00-.536-.16c-.416 0-.747.155-.992.464-.245.304-.368.717-.368 1.24 0 .528.123.944.368 1.248.25.304.587.456 1.008.456.25 0 .47-.061.656-.184.192-.123.366-.312.52-.568.016-.027.032-.04.048-.04a.073.073 0 01.056.008l.344.128c.038.016.048.05.032.104-.165.31-.392.563-.68.76-.288.192-.632.288-1.032.288-.39 0-.736-.09-1.04-.272a1.927 1.927 0 01-.712-.776 2.45 2.45 0 01-.256-1.136c0-.427.086-.808.256-1.144.17-.341.408-.605.712-.792.31-.187.656-.28 1.04-.28zm5.04 3.808c-.411.395-.886.592-1.425.592-.416 0-.744-.104-.984-.312-.234-.213-.352-.496-.352-.848 0-.427.179-.763.536-1.008.363-.245.886-.39 1.568-.432l.624-.048c.09-.01.136-.05.136-.12v-.216c0-.288-.09-.515-.272-.68-.176-.17-.416-.256-.72-.256-.47 0-.853.213-1.152.64a.174.174 0 01-.048.056c-.016.005-.037.003-.064-.008l-.432-.144c-.026-.01-.04-.03-.04-.056 0-.016.008-.04.024-.072.16-.283.387-.501.68-.656.299-.16.65-.24 1.056-.24.523 0 .923.123 1.2.368.278.24.416.573.416 1v2.832c0 .048-.008.08-.024.096s-.045.024-.088.024h-.4c-.064 0-.101-.043-.112-.128l-.016-.368c-.005-.037-.019-.056-.04-.056s-.045.013-.072.04zm.103-1.52c0-.085-.04-.128-.12-.128l-.52.048c-.496.032-.88.128-1.152.288-.267.16-.4.381-.4.664 0 .23.08.41.24.544.165.133.384.2.656.2a1.454 1.454 0 00.912-.328c.123-.096.216-.197.28-.304a.61.61 0 00.104-.32v-.664zm4.359-1.272a1.158 1.158 0 00-.464-.392 1.42 1.42 0 00-.672-.152c-.293 0-.533.064-.72.192-.187.123-.28.285-.28.488a.49.49 0 00.136.336c.096.096.267.181.512.256l1.016.304c.352.096.613.24.784.432.17.187.256.41.256.672 0 .245-.075.464-.224.656-.15.187-.355.333-.616.44a2.442 2.442 0 01-.888.152c-.41 0-.776-.08-1.096-.24-.32-.165-.547-.379-.68-.64a.137.137 0 01-.024-.064c0-.027.013-.048.04-.064l.312-.176c.053-.032.093-.03.12.008.288.459.733.688 1.336.688.315-.005.573-.07.776-.192.208-.128.312-.293.312-.496a.47.47 0 00-.184-.376c-.123-.101-.323-.192-.6-.272l-.824-.232c-.39-.101-.67-.243-.84-.424a.95.95 0 01-.248-.664c0-.245.067-.464.2-.656a1.3 1.3 0 01.576-.44c.25-.107.536-.16.856-.16.352 0 .667.067.944.2.283.133.499.315.648.544.037.053.035.09-.008.112l-.336.184a.122.122 0 01-.048.016c-.021 0-.045-.013-.072-.04zm1.998 1.448c0 .256.061.493.184.712.128.219.298.392.512.52.213.128.448.192.704.192.533 0 .949-.221 1.248-.664.021-.021.04-.032.056-.032.016-.005.034-.003.056.008l.336.168c.042.027.048.064.016.112-.208.32-.456.555-.744.704-.288.144-.632.216-1.032.216-.39 0-.739-.09-1.048-.272a1.921 1.921 0 01-.728-.76 2.424 2.424 0 01-.256-1.128c0-.453.088-.848.264-1.184.176-.341.416-.603.72-.784.309-.181.656-.272 1.04-.272s.72.085 1.008.256c.293.17.52.421.68.752.16.325.24.712.24 1.16v.032a.219.219 0 01-.024.112c-.016.021-.048.032-.096.032h-3.064c-.048 0-.072.04-.072.12zm2.448-.56c.058 0 .096-.005.112-.016.016-.016.024-.048.024-.096 0-.235-.051-.45-.152-.648a1.106 1.106 0 00-.432-.48 1.167 1.167 0 00-.656-.184c-.272 0-.51.07-.712.208-.203.133-.358.31-.464.528a1.445 1.445 0 00-.152.688h2.432z" fill="#959595"/></svg>