<svg width="1430" height="780" fill="none" xmlns="http://www.w3.org/2000/svg"><g clip-path="url(#clip0)" stroke="#D1D1D4" stroke-width="2"><path d="M-3 493c188.5-104.108 518.5-117.001 591-116 72.5 1 416-26.5 846.5 247.999"/><path d="M-3 476.968c184-114.467 529.5-136.467 595.5-136.467s407-35.001 842 227.499"/><path d="M-3 462.626C192.5 333 521.5 309.5 593.5 305.5s441-38 843 209.5"/><path d="M-3 444.811C170 316.5 524 276 595.5 272s468-38 839.5 185.001"/><path d="M-3 428.842C248.5 266.5 526.5 243 598 238s460.5-45.5 837.5 161.5"/><path d="M-6 415.297c224.5-156.798 528.5-204.298 600-209.298S1049.5 146 1436 346.5"/><path d="M-6 398.909C226 247 431.5 194.533 576.5 177.534c145-17 465.5-61.034 857.5 117.466M-5 380.499C581.5-8.5 1215.5 129 1436 243.499M-5 363.312C565-20.5 1132 70.5 1435.5 192.5M-5 345.295C565-38.517 1134 18.5 1437.5 140.5M-4 510.454C173.5 414 516.5 412.999 589 414c72.5 1.001 402-17 849 265.001"/><path d="M-4 524.608C204.5 435.5 513.5 448.499 586 449.5c72.5 1.001 398-3.501 845 278.5"/></g><defs><clipPath id="clip0"><path fill="#fff" d="M0 0h1430v780H0z"/></clipPath></defs></svg>