<svg width="16" height="16" viewBox="0 0 16 16" fill="none" xmlns="http://www.w3.org/2000/svg">
<path d="M0.184615 8.61538C0.0615385 8.49231 0 8.30769 0 8.18461C0 8.06154 0.0615385 7.87692 0.184615 7.75385L1.04615 6.89231C1.29231 6.64615 1.66154 6.64615 1.90769 6.89231L1.96923 6.95385L5.35385 10.5846C5.47692 10.7077 5.66154 10.7077 5.78462 10.5846L14.0308 2.03077H14.0923C14.3385 1.78461 14.7077 1.78461 14.9538 2.03077L15.8154 2.89231C16.0615 3.13846 16.0615 3.50769 15.8154 3.75385L5.96923 13.9692C5.84615 14.0923 5.72308 14.1538 5.53846 14.1538C5.35385 14.1538 5.23077 14.0923 5.10769 13.9692L0.307692 8.8L0.184615 8.61538Z" fill="#25DD7E"/>
</svg>
