<svg width="24" height="24" fill="none" xmlns="http://www.w3.org/2000/svg"><g clip-path="url(#clip0)"><path d="M12 24c6.628 0 12-5.373 12-12S18.629 0 12 0C5.375 0 .002 5.373.002 12s5.373 12 12 12z" fill="#fff"/><path d="M19.35 8.624a5.722 5.722 0 01-1.647.451 2.876 2.876 0 001.261-1.587 5.741 5.741 0 01-1.821.696 2.869 2.869 0 00-4.888 2.617 8.142 8.142 0 01-5.912-2.997 2.868 2.868 0 00.888 3.83 2.847 2.847 0 01-1.3-.36v.036c0 1.39.99 2.55 2.301 2.813a2.858 2.858 0 01-1.295.05 2.871 2.871 0 002.68 1.991 5.755 5.755 0 01-4.247 1.188 8.114 8.114 0 004.396 1.289c5.276 0 8.161-4.371 8.161-8.162 0-.124-.003-.248-.008-.37a5.818 5.818 0 001.431-1.485z" fill="#191919"/></g><defs><clipPath id="clip0"><path fill="#fff" d="M0 0h24v24H0z"/></clipPath></defs></svg>