<svg width="24" height="24" viewBox="0 0 24 24" fill="none" xmlns="http://www.w3.org/2000/svg">
<path d="M12 0C18.6277 0 24 5.373 24 12C24 18.6271 18.6277 24 12 24C5.37217 24 0 18.627 0 12C0 5.37308 5.37226 0 12 0Z" fill="white"/>
<path d="M11.7105 9.75085C12.09 9.75085 12.3871 9.63008 12.6046 9.45839C12.8206 9.28588 12.9286 9.05117 12.9286 8.74964V6.93011C12.9286 6.66236 12.8183 6.44108 12.5985 6.27088C12.3773 6.10059 12.0945 6.0159 11.748 6.0159C11.3693 6.0159 11.0663 6.09614 10.842 6.25737C10.617 6.41933 10.5045 6.63534 10.5045 6.9091V8.73457C10.5045 9.03453 10.614 9.27154 10.833 9.44933C11.052 9.62711 11.3453 9.75085 11.7105 9.75085ZM11.3139 6.99767C11.3139 6.92863 11.3499 6.87318 11.4211 6.82894C11.4931 6.78619 11.5861 6.76518 11.7001 6.76518C11.8246 6.76518 11.9251 6.78619 12.0009 6.82894C12.0775 6.87318 12.115 6.92871 12.115 6.99767V8.72715C12.115 8.81267 12.0775 8.88014 12.0024 8.92891C11.9274 8.97694 11.8269 9.00166 11.7001 9.00166C11.5764 9.00166 11.4804 8.97842 11.4136 8.92965C11.3476 8.88236 11.3139 8.81489 11.3139 8.72715V6.99767V6.99767ZM14.2216 9.74863C14.3551 9.74863 14.4908 9.6721 14.6319 9.59564C14.7744 9.51763 14.9101 9.40361 15.0407 9.25515V9.65941H15.7494V6.01063H15.0407V8.78037C14.9747 8.85913 14.9012 8.92438 14.8224 8.97612C14.7422 9.02711 14.6762 9.05339 14.6244 9.05339C14.5577 9.05339 14.5089 9.03461 14.4804 8.9949C14.4505 8.95667 14.434 8.89439 14.434 8.80888V6.01137H13.7267V9.06015C13.7267 9.27764 13.7695 9.44043 13.8512 9.54844C13.9343 9.6571 14.0573 9.74863 14.2216 9.74863ZM16.2826 11.2569H7.71755C6.35557 11.2569 5.25229 12.3182 5.25229 13.6255V15.628C5.25229 16.936 6.35557 17.9972 7.71755 17.9972H16.2825C17.6437 17.9972 18.7478 16.936 18.7478 15.628V13.6255C18.7478 12.3181 17.6438 11.2569 16.2826 11.2569ZM8.99178 13.2894H8.23434V16.4259H7.50162V13.2894H6.7441V12.7547H8.99186C8.99178 12.7547 8.99178 13.2894 8.99178 13.2894ZM11.2523 16.4694H10.4626V16.1439C10.3156 16.264 10.1648 16.3561 10.0058 16.4177C9.84906 16.4822 9.69608 16.5129 9.54762 16.5129C9.36465 16.5129 9.22814 16.4687 9.13513 16.3795C9.0436 16.2917 8.99639 16.1597 8.99639 15.9834V13.507H9.78612V15.7787C9.78612 15.8492 9.8026 15.8988 9.83415 15.9302C9.86867 15.9624 9.92338 15.9767 9.99694 15.9767C10.054 15.9767 10.1289 15.9564 10.2174 15.9144C10.3066 15.8731 10.3884 15.8207 10.4627 15.7554V13.5062H11.2524C11.2523 13.5062 11.2523 16.4694 11.2523 16.4694ZM14.2418 15.9054C14.2418 16.0997 14.1802 16.2474 14.0581 16.3517C13.9373 16.4559 13.7588 16.5069 13.5286 16.5069C13.3748 16.5069 13.2383 16.4874 13.1198 16.4477C13.0006 16.408 12.888 16.3464 12.7861 16.2617V16.4717H11.9978V12.7547H12.7861V13.9524C12.8926 13.87 13.0043 13.8055 13.1205 13.762C13.2397 13.7177 13.3598 13.6967 13.4805 13.6967C13.7273 13.6967 13.9155 13.7545 14.0453 13.8707C14.1765 13.9877 14.2418 14.1595 14.2418 14.3837C14.2418 14.3836 14.2418 15.9054 14.2418 15.9054ZM17.2463 15.0691H15.7913V15.6046C15.7913 15.7539 15.8153 15.8574 15.8656 15.9159C15.9166 15.9736 16.0028 16.0021 16.1236 16.0021C16.2511 16.0021 16.3381 15.9774 16.3891 15.9287C16.4386 15.8791 16.4656 15.7719 16.4656 15.6039V15.4749H17.2479V15.6204C17.2479 15.9114 17.1541 16.1304 16.9606 16.2781C16.7701 16.4251 16.4851 16.4986 16.1064 16.4986C15.7651 16.4986 15.4966 16.4206 15.3009 16.2646C15.1059 16.1101 15.0069 15.8941 15.0069 15.6211V14.3446C15.0069 14.0993 15.1149 13.8968 15.3309 13.7416C15.5462 13.5871 15.8221 13.5099 16.1634 13.5099C16.5114 13.5099 16.7791 13.5819 16.9666 13.7251C17.1534 13.8684 17.2464 14.0753 17.2464 14.3439C17.2463 14.3439 17.2463 15.0691 17.2463 15.0691ZM8.56734 9.75917H9.46211V7.57888L10.5039 4.50391H9.59409L9.04055 6.60544H8.98354L8.40306 4.50391H7.50079L8.56725 7.67717C8.56734 7.67717 8.56734 9.75917 8.56734 9.75917ZM13.1123 14.1316L12.9465 14.1586L12.7853 14.2419V15.9504C12.8483 15.9946 12.9105 16.0284 12.9706 16.0471L13.1588 16.0764C13.2548 16.0764 13.3246 16.0576 13.3696 16.0179C13.4138 15.9797 13.437 15.9166 13.437 15.8304V14.4136C13.437 14.3199 13.4108 14.2501 13.3553 14.2029C13.2983 14.1557 13.2181 14.1316 13.1123 14.1316Z" fill="#191919"/>
<path d="M16.1656 14.0071C16.0441 14.0071 15.9578 14.0326 15.9046 14.0851C15.8521 14.1353 15.8266 14.2209 15.8266 14.3401V14.6266H16.4993V14.3401C16.4993 14.2209 16.4716 14.1361 16.4191 14.0851C16.3673 14.0326 16.2811 14.0071 16.1656 14.0071Z" fill="#191919"/>
</svg>
