<svg width="24" height="24" fill="none" xmlns="http://www.w3.org/2000/svg"><path d="M12 0c6.628 0 12 5.373 12 12s-5.372 12-12 12S0 18.627 0 12 5.372 0 12 0z" fill="#fff"/><path d="M11.71 9.75c.38 0 .677-.12.895-.292.216-.172.324-.407.324-.708V6.93a.8.8 0 00-.33-.66c-.222-.17-.505-.254-.851-.254-.379 0-.682.08-.906.241a.762.762 0 00-.338.652v1.826c0 .3.11.537.329.714.219.178.512.302.877.302zm-.396-2.752c0-.07.036-.125.107-.17a.541.541 0 01.28-.063c.124 0 .224.021.3.064.077.044.114.1.114.169v1.73a.229.229 0 01-.113.2.554.554 0 01-.302.074.482.482 0 01-.286-.072.235.235 0 01-.1-.203v-1.73zm2.908 2.75c.133 0 .269-.076.41-.152.142-.078.278-.192.409-.34v.403h.708V6.011h-.708v2.77c-.066.078-.14.143-.219.195a.402.402 0 01-.198.077c-.066 0-.115-.018-.144-.058-.03-.038-.046-.1-.046-.186V6.01h-.707v3.05c0 .217.043.38.124.487.083.11.206.2.37.2zm2.06 1.509H7.719c-1.362 0-2.466 1.061-2.466 2.369v2.002c0 1.308 1.104 2.37 2.466 2.37h8.564c1.362 0 2.466-1.062 2.466-2.37v-2.002c0-1.308-1.104-2.37-2.465-2.37zm-7.29 2.032h-.758v3.137h-.732v-3.137h-.758v-.534h2.248v.534zm2.26 3.18h-.79v-.325c-.146.12-.297.212-.456.274-.157.064-.31.095-.458.095-.183 0-.32-.044-.413-.134-.091-.087-.139-.22-.139-.396v-2.476h.79v2.272c0 .07.017.12.048.151.035.032.09.047.163.047.057 0 .132-.02.22-.063a.96.96 0 00.246-.159v-2.249h.79v2.963zm2.99-.564c0 .195-.062.342-.184.447-.12.104-.3.155-.53.155-.153 0-.29-.02-.408-.06a1.028 1.028 0 01-.334-.185v.21h-.788v-3.717h.788v1.197c.107-.082.218-.146.335-.19a1.03 1.03 0 01.36-.065c.246 0 .434.058.564.174.132.117.197.288.197.513v1.521zm3.004-.836h-1.455v.536c0 .149.024.252.075.31.05.059.137.087.258.087.127 0 .214-.025.265-.073.05-.05.077-.157.077-.325v-.13h.782v.146c0 .291-.094.51-.287.658-.19.147-.476.22-.855.22-.34 0-.61-.077-.805-.233-.195-.155-.294-.37-.294-.644v-1.276c0-.246.108-.448.324-.603.215-.155.491-.232.832-.232.348 0 .616.072.804.215.186.143.28.35.28.619v.725zM8.567 9.76h.895V7.58l1.042-3.075h-.91l-.553 2.101h-.057l-.58-2.101H7.5l1.066 3.173V9.76zm4.545 4.373l-.165.027-.162.083v1.708a.687.687 0 00.186.097l.188.03c.096 0 .166-.02.21-.06.045-.037.068-.1.068-.187v-1.416c0-.094-.026-.164-.082-.211a.37.37 0 00-.243-.071z" fill="#191919"/><path d="M16.166 14.007c-.122 0-.208.026-.261.078-.053.05-.078.136-.078.255v.287h.672v-.287c0-.12-.027-.204-.08-.255-.052-.052-.138-.078-.253-.078z" fill="#191919"/></svg>